<svg width="24" height="24" viewBox="0 0 24 24" fill="none" xmlns="http://www.w3.org/2000/svg">
<g clip-path="url(#clip0)">
<path fill-rule="evenodd" clip-rule="evenodd" d="M12 -0.00244141C9.76477 -0.00244141 7.3698 0.858271 5.72119 2.59646C4.03439 4.37493 3.21551 6.98278 4.02984 10.2401C5.06211 14.3692 6.79293 17.7207 8.30407 20.043C9.05995 21.2046 9.76563 22.1161 10.3099 22.7454C10.5808 23.0587 10.8192 23.3107 11.0098 23.4919C11.103 23.5805 11.1991 23.6659 11.2911 23.7358C11.3355 23.7695 11.3986 23.8147 11.4733 23.8564L11.4771 23.8585C11.516 23.8806 11.7222 23.9976 12 23.9976C12.2777 23.9976 12.4839 23.8806 12.5229 23.8585L12.5267 23.8564C12.6013 23.8147 12.6644 23.7695 12.7088 23.7358C12.8008 23.6659 12.8969 23.5805 12.9902 23.4919C13.1808 23.3107 13.4191 23.0587 13.6901 22.7454C14.2343 22.1161 14.94 21.2046 15.6959 20.043C17.207 17.7207 18.9378 14.3692 19.9701 10.2401C20.7844 6.98279 19.9656 4.37493 18.2788 2.59647C16.6301 0.858273 14.2352 -0.00244141 12 -0.00244141ZM12 10.9976C13.1045 10.9976 14 10.1021 14 8.99756C14 7.89299 13.1045 6.99756 12 6.99756C10.8954 6.99756 9.99997 7.89299 9.99997 8.99756C9.99997 10.1021 10.8954 10.9976 12 10.9976Z" fill="#EBF3FF"/>
</g>
<defs>
<clipPath id="clip0">
<rect width="24" height="24" fill="white"/>
</clipPath>
</defs>
</svg>
