<svg width="80" height="80" viewBox="0 0 80 80" fill="none" xmlns="http://www.w3.org/2000/svg">
<path fill-rule="evenodd" clip-rule="evenodd" d="M57 18H41C39.8954 18 39 18.8954 39 20V28C39 29.1046 39.8954 30 41 30H57C58.1046 30 59 29.1046 59 28V20C59 18.8954 58.1046 18 57 18ZM41 16C38.7909 16 37 17.7909 37 20V28C37 30.2091 38.7909 32 41 32H57C59.2091 32 61 30.2091 61 28V20C61 17.7909 59.2091 16 57 16H41Z" fill="#001B43"/>
<path fill-rule="evenodd" clip-rule="evenodd" d="M57 18H41C39.8954 18 39 18.8954 39 20V28C39 29.1046 39.8954 30 41 30H57C58.1046 30 59 29.1046 59 28V20C59 18.8954 58.1046 18 57 18ZM41 16C38.7909 16 37 17.7909 37 20V28C37 30.2091 38.7909 32 41 32H57C59.2091 32 61 30.2091 61 28V20C61 17.7909 59.2091 16 57 16H41Z" fill="#0D0043"/>
<path fill-rule="evenodd" clip-rule="evenodd" d="M61 32H37V34H61V32ZM37 30C35.8954 30 35 30.8954 35 32V34C35 35.1046 35.8954 36 37 36H61C62.1046 36 63 35.1046 63 34V32C63 30.8954 62.1046 30 61 30H37Z" fill="#001B43"/>
<path fill-rule="evenodd" clip-rule="evenodd" d="M61 32H37V34H61V32ZM37 30C35.8954 30 35 30.8954 35 32V34C35 35.1046 35.8954 36 37 36H61C62.1046 36 63 35.1046 63 34V32C63 30.8954 62.1046 30 61 30H37Z" fill="#0D0043"/>
<path fill-rule="evenodd" clip-rule="evenodd" d="M12 36C12 35.4477 12.4477 35 13 35H67C67.5523 35 68 35.4477 68 36C68 36.5523 67.5523 37 67 37H13C12.4477 37 12 36.5523 12 36Z" fill="#001B43"/>
<path fill-rule="evenodd" clip-rule="evenodd" d="M12 36C12 35.4477 12.4477 35 13 35H67C67.5523 35 68 35.4477 68 36C68 36.5523 67.5523 37 67 37H13C12.4477 37 12 36.5523 12 36Z" fill="#0D0043"/>
<path fill-rule="evenodd" clip-rule="evenodd" d="M15 35C15.5523 35 16 35.4477 16 36V47H31.5V36C31.5 35.4477 31.9477 35 32.5 35C33.0523 35 33.5 35.4477 33.5 36V41H64V36C64 35.4477 64.4477 35 65 35C65.5523 35 66 35.4477 66 36V63C66 63.5523 65.5523 64 65 64C64.4477 64 64 63.5523 64 63V43H33.5V63C33.5 63.5523 33.0523 64 32.5 64C31.9477 64 31.5 63.5523 31.5 63V61H16V63C16 63.5523 15.5523 64 15 64C14.4477 64 14 63.5523 14 63V36C14 35.4477 14.4477 35 15 35ZM16 59H31.5V49H16V59Z" fill="#001B43"/>
<path fill-rule="evenodd" clip-rule="evenodd" d="M15 35C15.5523 35 16 35.4477 16 36V47H31.5V36C31.5 35.4477 31.9477 35 32.5 35C33.0523 35 33.5 35.4477 33.5 36V41H64V36C64 35.4477 64.4477 35 65 35C65.5523 35 66 35.4477 66 36V63C66 63.5523 65.5523 64 65 64C64.4477 64 64 63.5523 64 63V43H33.5V63C33.5 63.5523 33.0523 64 32.5 64C31.9477 64 31.5 63.5523 31.5 63V61H16V63C16 63.5523 15.5523 64 15 64C14.4477 64 14 63.5523 14 63V36C14 35.4477 14.4477 35 15 35ZM16 59H31.5V49H16V59Z" fill="#0D0043"/>
<path fill-rule="evenodd" clip-rule="evenodd" d="M21 42C21 41.4477 21.4477 41 22 41H26C26.5523 41 27 41.4477 27 42C27 42.5523 26.5523 43 26 43H22C21.4477 43 21 42.5523 21 42Z" fill="#001B43"/>
<path fill-rule="evenodd" clip-rule="evenodd" d="M21 42C21 41.4477 21.4477 41 22 41H26C26.5523 41 27 41.4477 27 42C27 42.5523 26.5523 43 26 43H22C21.4477 43 21 42.5523 21 42Z" fill="#0D0043"/>
<path fill-rule="evenodd" clip-rule="evenodd" d="M21 54C21 53.4477 21.4477 53 22 53H26C26.5523 53 27 53.4477 27 54C27 54.5523 26.5523 55 26 55H22C21.4477 55 21 54.5523 21 54Z" fill="#001B43"/>
<path fill-rule="evenodd" clip-rule="evenodd" d="M21 54C21 53.4477 21.4477 53 22 53H26C26.5523 53 27 53.4477 27 54C27 54.5523 26.5523 55 26 55H22C21.4477 55 21 54.5523 21 54Z" fill="#0D0043"/>
<path fill-rule="evenodd" clip-rule="evenodd" d="M20 27C20 26.4477 20.4477 26 21 26H27C27.5523 26 28 26.4477 28 27V36C28 36.5523 27.5523 37 27 37H21C20.4477 37 20 36.5523 20 36V27ZM22 28V35H26V28H22Z" fill="#001B43"/>
<path fill-rule="evenodd" clip-rule="evenodd" d="M20 27C20 26.4477 20.4477 26 21 26H27C27.5523 26 28 26.4477 28 27V36C28 36.5523 27.5523 37 27 37H21C20.4477 37 20 36.5523 20 36V27ZM22 28V35H26V28H22Z" fill="#0D0043"/>
<path fill-rule="evenodd" clip-rule="evenodd" d="M21 30C19.8954 30 19 30.8954 19 32C19 33.1046 19.8954 34 21 34C21.5523 34 22 34.4477 22 35C22 35.5523 21.5523 36 21 36C18.7909 36 17 34.2091 17 32C17 29.7909 18.7909 28 21 28C21.5523 28 22 28.4477 22 29C22 29.5523 21.5523 30 21 30Z" fill="#001B43"/>
<path fill-rule="evenodd" clip-rule="evenodd" d="M21 30C19.8954 30 19 30.8954 19 32C19 33.1046 19.8954 34 21 34C21.5523 34 22 34.4477 22 35C22 35.5523 21.5523 36 21 36C18.7909 36 17 34.2091 17 32C17 29.7909 18.7909 28 21 28C21.5523 28 22 28.4477 22 29C22 29.5523 21.5523 30 21 30Z" fill="#0D0043"/>
</svg>
