<svg width="80" height="80" viewBox="0 0 80 80" fill="none" xmlns="http://www.w3.org/2000/svg">
<path fill-rule="evenodd" clip-rule="evenodd" d="M30 16C29.4477 16 29 16.4477 29 17V23.1172L16.6613 27.5591C16.4112 27.6492 16.2073 27.835 16.0945 28.0757C15.9817 28.3163 15.9694 28.592 16.0602 28.8418L28.0602 61.8418C28.2487 62.3602 28.8214 62.628 29.3401 62.4404L52.3399 54.1214L56.8333 63.7576L64.0838 60.3766L60.5631 52.8265C60.8269 52.6465 61 52.3434 61 52V17C61 16.4477 60.5523 16 60 16H30ZM59 49.4744V18H31V51H50.8844L48.3809 45.6314L48.5706 38.6897C48.5931 37.866 49.5464 37.4215 50.1919 37.9337L55.6314 42.2505L59 49.4744ZM53.4895 51.8543C53.4606 51.657 53.3742 51.4784 53.2478 51.3361L50.6162 45.6925L54.2414 44.002L61.4259 59.4093L57.8007 61.0997L53.4895 51.8543ZM49.5601 53H30C29.4477 53 29 52.5523 29 52V25.2429L18.2826 29.1011L29.5986 60.2201L49.5601 53ZM50.5152 40.7436L52.7291 42.5005L50.438 43.5688L50.5152 40.7436Z" fill="#001B43"/>
<path fill-rule="evenodd" clip-rule="evenodd" d="M30 16C29.4477 16 29 16.4477 29 17V23.1172L16.6613 27.5591C16.4112 27.6492 16.2073 27.835 16.0945 28.0757C15.9817 28.3163 15.9694 28.592 16.0602 28.8418L28.0602 61.8418C28.2487 62.3602 28.8214 62.628 29.3401 62.4404L52.3399 54.1214L56.8333 63.7576L64.0838 60.3766L60.5631 52.8265C60.8269 52.6465 61 52.3434 61 52V17C61 16.4477 60.5523 16 60 16H30ZM59 49.4744V18H31V51H50.8844L48.3809 45.6314L48.5706 38.6897C48.5931 37.866 49.5464 37.4215 50.1919 37.9337L55.6314 42.2505L59 49.4744ZM53.4895 51.8543C53.4606 51.657 53.3742 51.4784 53.2478 51.3361L50.6162 45.6925L54.2414 44.002L61.4259 59.4093L57.8007 61.0997L53.4895 51.8543ZM49.5601 53H30C29.4477 53 29 52.5523 29 52V25.2429L18.2826 29.1011L29.5986 60.2201L49.5601 53ZM50.5152 40.7436L52.7291 42.5005L50.438 43.5688L50.5152 40.7436Z" fill="#0D0043"/>
<path d="M36 24C36 23.4477 36.4477 23 37 23H55C55.5523 23 56 23.4477 56 24C56 24.5523 55.5523 25 55 25H37C36.4477 25 36 24.5523 36 24Z" fill="#001B43"/>
<path d="M36 24C36 23.4477 36.4477 23 37 23H55C55.5523 23 56 23.4477 56 24C56 24.5523 55.5523 25 55 25H37C36.4477 25 36 24.5523 36 24Z" fill="#0D0043"/>
<path d="M43 31C42.4477 31 42 31.4477 42 32C42 32.5523 42.4477 33 43 33H53C53.5523 33 54 32.5523 54 32C54 31.4477 53.5523 31 53 31H43Z" fill="#001B43"/>
<path d="M43 31C42.4477 31 42 31.4477 42 32C42 32.5523 42.4477 33 43 33H53C53.5523 33 54 32.5523 54 32C54 31.4477 53.5523 31 53 31H43Z" fill="#0D0043"/>
<path d="M35 42C35 41.4477 35.4477 41 36 41H44C44.5523 41 45 41.4477 45 42C45 42.5523 44.5523 43 44 43H36C35.4477 43 35 42.5523 35 42Z" fill="#001B43"/>
<path d="M35 42C35 41.4477 35.4477 41 36 41H44C44.5523 41 45 41.4477 45 42C45 42.5523 44.5523 43 44 43H36C35.4477 43 35 42.5523 35 42Z" fill="#0D0043"/>
</svg>
