<svg width="80" height="80" viewBox="0 0 80 80" fill="none" xmlns="http://www.w3.org/2000/svg">
<path fill-rule="evenodd" clip-rule="evenodd" d="M60 33.5C60 31.567 61.567 30 63.5 30C65.433 30 67 31.567 67 33.5V36.5C67 38.433 65.433 40 63.5 40C61.567 40 60 38.433 60 36.5V33.5ZM58 36.5V33.5C58 30.4624 60.4624 28 63.5 28C66.5376 28 69 30.4624 69 33.5V36.5C69 39.5376 66.5376 42 63.5 42C60.4624 42 58 39.5376 58 36.5Z" fill="#001B43"/>
<path fill-rule="evenodd" clip-rule="evenodd" d="M60 33.5C60 31.567 61.567 30 63.5 30C65.433 30 67 31.567 67 33.5V36.5C67 38.433 65.433 40 63.5 40C61.567 40 60 38.433 60 36.5V33.5ZM58 36.5V33.5C58 30.4624 60.4624 28 63.5 28C66.5376 28 69 30.4624 69 33.5V36.5C69 39.5376 66.5376 42 63.5 42C60.4624 42 58 39.5376 58 36.5Z" fill="#0D0043"/>
<path fill-rule="evenodd" clip-rule="evenodd" d="M55.4874 49.9978C55.412 50.5445 54.9079 50.9268 54.3611 50.8519C53.8139 50.7769 53.4311 50.2725 53.506 49.7254L54.4968 49.8611C53.506 49.7254 53.5062 49.7243 53.5062 49.7243L53.5064 49.7231L53.5067 49.7204L53.5077 49.7134L53.5107 49.6936C53.5131 49.6779 53.5165 49.6571 53.5209 49.6315C53.5297 49.5803 53.5427 49.51 53.5611 49.4227C53.5979 49.2483 53.6563 49.0055 53.7455 48.713C53.9235 48.1296 54.227 47.3389 54.7328 46.497C55.7537 44.798 57.5938 42.9053 60.8076 42.104C64.0214 41.3027 66.5348 42.11 68.2337 43.1308C69.0757 43.6367 69.7149 44.1924 70.1459 44.6239C70.362 44.8403 70.5276 45.0273 70.6419 45.164C70.6991 45.2324 70.7436 45.2884 70.7754 45.3295C70.7913 45.35 70.804 45.3668 70.8136 45.3795L70.8255 45.3956L70.8296 45.4013L70.8319 45.4045C70.8319 45.4045 70.8326 45.4054 70.0215 45.9904L70.8326 45.4054C71.1556 45.8533 71.0544 46.4783 70.6065 46.8014C70.1596 47.1237 69.5365 47.0237 69.2127 46.5785L69.2114 46.5767C69.2101 46.5749 69.2079 46.5719 69.2053 46.5686C69.2024 46.5647 69.1986 46.5598 69.194 46.5539C69.1768 46.5316 69.148 46.4952 69.1077 46.4471C69.027 46.3506 68.901 46.2077 68.7308 46.0373C68.3892 45.6953 67.877 45.2497 67.2037 44.8452C65.872 44.045 63.8995 43.3943 61.2915 44.0446C58.6835 44.6948 57.2473 46.1954 56.4472 47.5271C56.0426 48.2004 55.7995 48.8343 55.6585 49.2966C55.5882 49.5269 55.544 49.7123 55.5181 49.8353C55.5051 49.8968 55.4967 49.9425 55.492 49.9702C55.4896 49.984 55.4881 49.9933 55.4874 49.9978ZM55.4874 49.9978C55.4871 50.0001 55.4869 50.0011 55.4869 50.0011L55.4871 49.9999L55.4874 49.9978Z" fill="#001B43"/>
<path fill-rule="evenodd" clip-rule="evenodd" d="M55.4874 49.9978C55.412 50.5445 54.9079 50.9268 54.3611 50.8519C53.8139 50.7769 53.4311 50.2725 53.506 49.7254L54.4968 49.8611C53.506 49.7254 53.5062 49.7243 53.5062 49.7243L53.5064 49.7231L53.5067 49.7204L53.5077 49.7134L53.5107 49.6936C53.5131 49.6779 53.5165 49.6571 53.5209 49.6315C53.5297 49.5803 53.5427 49.51 53.5611 49.4227C53.5979 49.2483 53.6563 49.0055 53.7455 48.713C53.9235 48.1296 54.227 47.3389 54.7328 46.497C55.7537 44.798 57.5938 42.9053 60.8076 42.104C64.0214 41.3027 66.5348 42.11 68.2337 43.1308C69.0757 43.6367 69.7149 44.1924 70.1459 44.6239C70.362 44.8403 70.5276 45.0273 70.6419 45.164C70.6991 45.2324 70.7436 45.2884 70.7754 45.3295C70.7913 45.35 70.804 45.3668 70.8136 45.3795L70.8255 45.3956L70.8296 45.4013L70.8319 45.4045C70.8319 45.4045 70.8326 45.4054 70.0215 45.9904L70.8326 45.4054C71.1556 45.8533 71.0544 46.4783 70.6065 46.8014C70.1596 47.1237 69.5365 47.0237 69.2127 46.5785L69.2114 46.5767C69.2101 46.5749 69.2079 46.5719 69.2053 46.5686C69.2024 46.5647 69.1986 46.5598 69.194 46.5539C69.1768 46.5316 69.148 46.4952 69.1077 46.4471C69.027 46.3506 68.901 46.2077 68.7308 46.0373C68.3892 45.6953 67.877 45.2497 67.2037 44.8452C65.872 44.045 63.8995 43.3943 61.2915 44.0446C58.6835 44.6948 57.2473 46.1954 56.4472 47.5271C56.0426 48.2004 55.7995 48.8343 55.6585 49.2966C55.5882 49.5269 55.544 49.7123 55.5181 49.8353C55.5051 49.8968 55.4967 49.9425 55.492 49.9702C55.4896 49.984 55.4881 49.9933 55.4874 49.9978ZM55.4874 49.9978C55.4871 50.0001 55.4869 50.0011 55.4869 50.0011L55.4871 49.9999L55.4874 49.9978Z" fill="#0D0043"/>
<path fill-rule="evenodd" clip-rule="evenodd" d="M13 33.5C13 31.567 14.567 30 16.5 30C18.433 30 20 31.567 20 33.5V36.5C20 38.433 18.433 40 16.5 40C14.567 40 13 38.433 13 36.5V33.5ZM11 36.5V33.5C11 30.4624 13.4624 28 16.5 28C19.5376 28 22 30.4624 22 33.5V36.5C22 39.5376 19.5376 42 16.5 42C13.4624 42 11 39.5376 11 36.5Z" fill="#001B43"/>
<path fill-rule="evenodd" clip-rule="evenodd" d="M13 33.5C13 31.567 14.567 30 16.5 30C18.433 30 20 31.567 20 33.5V36.5C20 38.433 18.433 40 16.5 40C14.567 40 13 38.433 13 36.5V33.5ZM11 36.5V33.5C11 30.4624 13.4624 28 16.5 28C19.5376 28 22 30.4624 22 33.5V36.5C22 39.5376 19.5376 42 16.5 42C13.4624 42 11 39.5376 11 36.5Z" fill="#0D0043"/>
<path fill-rule="evenodd" clip-rule="evenodd" d="M10.4537 46.642C10.1344 47.0921 9.51074 47.1985 9.06026 46.8795C8.60953 46.5603 8.50287 45.9362 8.82202 45.4855L9.63814 46.0634C8.82202 45.4855 8.82232 45.4851 8.82264 45.4846L8.82495 45.4814L8.82905 45.4757L8.84081 45.4595C8.85023 45.4467 8.8628 45.4297 8.87851 45.4091C8.90992 45.3678 8.95398 45.3114 9.01059 45.2425C9.12372 45.1048 9.28765 44.9163 9.50185 44.6981C9.92911 44.2628 10.5634 43.7016 11.4009 43.1883C13.0909 42.1527 15.5971 41.3235 18.8178 42.0967C22.0384 42.8699 23.8951 44.7466 24.9307 46.4366C25.4439 47.274 25.7543 48.062 25.9373 48.6439C26.0291 48.9356 26.0896 49.1779 26.1279 49.352C26.1471 49.4391 26.1607 49.5093 26.1699 49.5604C26.1746 49.5859 26.1781 49.6067 26.1806 49.6224L26.1838 49.6422L26.1848 49.6491L26.1854 49.6531C26.1855 49.6536 26.1856 49.6541 25.1961 49.7985L26.1856 49.6541C26.2653 50.2006 25.8869 50.7083 25.3404 50.788C24.7952 50.8676 24.2886 50.4911 24.2071 49.9467C24.207 49.946 24.2069 49.9452 24.2068 49.9445C24.2064 49.9424 24.2058 49.9387 24.2051 49.9345C24.2043 49.9297 24.2032 49.9236 24.2019 49.9163C24.1969 49.8886 24.1881 49.843 24.1746 49.7816C24.1476 49.6588 24.1018 49.4739 24.0295 49.2441C23.8845 48.7831 23.6358 48.1513 23.2254 47.4815C22.4137 46.157 20.9645 44.6689 18.3509 44.0415C15.7373 43.414 13.7705 44.0819 12.4459 44.8936C11.7761 45.3041 11.2678 45.7541 10.9292 46.099C10.7605 46.2709 10.6358 46.4149 10.5559 46.5121C10.516 46.5606 10.4875 46.5973 10.4705 46.6196C10.462 46.6308 10.4564 46.6383 10.4537 46.642ZM10.4537 46.642C10.4524 46.6439 10.4517 46.6449 10.4518 46.6447L10.4525 46.6438L10.4537 46.642ZM24.2071 49.9467C24.2071 49.9469 24.2071 49.9466 24.2071 49.9467V49.9467Z" fill="#001B43"/>
<path fill-rule="evenodd" clip-rule="evenodd" d="M10.4537 46.642C10.1344 47.0921 9.51074 47.1985 9.06026 46.8795C8.60953 46.5603 8.50287 45.9362 8.82202 45.4855L9.63814 46.0634C8.82202 45.4855 8.82232 45.4851 8.82264 45.4846L8.82495 45.4814L8.82905 45.4757L8.84081 45.4595C8.85023 45.4467 8.8628 45.4297 8.87851 45.4091C8.90992 45.3678 8.95398 45.3114 9.01059 45.2425C9.12372 45.1048 9.28765 44.9163 9.50185 44.6981C9.92911 44.2628 10.5634 43.7016 11.4009 43.1883C13.0909 42.1527 15.5971 41.3235 18.8178 42.0967C22.0384 42.8699 23.8951 44.7466 24.9307 46.4366C25.4439 47.274 25.7543 48.062 25.9373 48.6439C26.0291 48.9356 26.0896 49.1779 26.1279 49.352C26.1471 49.4391 26.1607 49.5093 26.1699 49.5604C26.1746 49.5859 26.1781 49.6067 26.1806 49.6224L26.1838 49.6422L26.1848 49.6491L26.1854 49.6531C26.1855 49.6536 26.1856 49.6541 25.1961 49.7985L26.1856 49.6541C26.2653 50.2006 25.8869 50.7083 25.3404 50.788C24.7952 50.8676 24.2886 50.4911 24.2071 49.9467C24.207 49.946 24.2069 49.9452 24.2068 49.9445C24.2064 49.9424 24.2058 49.9387 24.2051 49.9345C24.2043 49.9297 24.2032 49.9236 24.2019 49.9163C24.1969 49.8886 24.1881 49.843 24.1746 49.7816C24.1476 49.6588 24.1018 49.4739 24.0295 49.2441C23.8845 48.7831 23.6358 48.1513 23.2254 47.4815C22.4137 46.157 20.9645 44.6689 18.3509 44.0415C15.7373 43.414 13.7705 44.0819 12.4459 44.8936C11.7761 45.3041 11.2678 45.7541 10.9292 46.099C10.7605 46.2709 10.6358 46.4149 10.5559 46.5121C10.516 46.5606 10.4875 46.5973 10.4705 46.6196C10.462 46.6308 10.4564 46.6383 10.4537 46.642ZM10.4537 46.642C10.4524 46.6439 10.4517 46.6449 10.4518 46.6447L10.4525 46.6438L10.4537 46.642ZM24.2071 49.9467C24.2071 49.9469 24.2071 49.9466 24.2071 49.9467V49.9467Z" fill="#0D0043"/>
<path fill-rule="evenodd" clip-rule="evenodd" d="M52 30C52 24.2989 46.4304 20 40 20C33.5696 20 28 24.2989 28 30V38C28 41.4214 30.0059 44.3378 33 46.1231V51.5C33 51.7522 33.0953 51.9952 33.2669 52.1801L34 51.5C33.2669 52.1801 33.2676 52.1808 33.2676 52.1808L33.2683 52.1816L33.2699 52.1834L33.2737 52.1874L33.2836 52.1978C33.2912 52.2058 33.3009 52.2157 33.3126 52.2276C33.3361 52.2513 33.3677 52.2825 33.4076 52.3201C33.4874 52.3953 33.6002 52.4964 33.7463 52.6145C34.0382 52.8505 34.4645 53.1558 35.0256 53.4582C36.1513 54.065 37.813 54.6559 40 54.6559C42.187 54.6559 43.8487 54.065 44.9744 53.4582C45.5355 53.1558 45.9618 52.8505 46.2537 52.6145C46.3998 52.4964 46.5126 52.3953 46.5924 52.3201C46.6323 52.2825 46.6639 52.2513 46.6874 52.2276C46.6991 52.2157 46.7088 52.2058 46.7164 52.1978L46.7263 52.1874L46.7301 52.1834L46.7317 52.1816L46.7324 52.1808C46.7324 52.1808 46.7331 52.1801 46 51.5L46.7331 52.1801C46.9047 51.9952 47 51.7522 47 51.5V46.1231C49.9941 44.3378 52 41.4214 52 38V30ZM40 22C34.2802 22 30 25.76 30 30V32C30 31.9998 30 32.0002 30 32V38C30 42.24 34.2802 46 40 46C45.7198 46 50 42.24 50 38V30C50 25.76 45.7198 22 40 22ZM40 48C41.7638 48 43.4629 47.6766 45 47.0895V51.0562L44.9963 51.0592C44.7882 51.2274 44.4645 51.4611 44.0256 51.6977C43.1513 52.1689 41.813 52.6559 40 52.6559C38.187 52.6559 36.8487 52.1689 35.9744 51.6977C35.5355 51.4611 35.2118 51.2274 35.0037 51.0592L35 51.0562V47.0895C36.5371 47.6766 38.2362 48 40 48Z" fill="#001B43"/>
<path fill-rule="evenodd" clip-rule="evenodd" d="M52 30C52 24.2989 46.4304 20 40 20C33.5696 20 28 24.2989 28 30V38C28 41.4214 30.0059 44.3378 33 46.1231V51.5C33 51.7522 33.0953 51.9952 33.2669 52.1801L34 51.5C33.2669 52.1801 33.2676 52.1808 33.2676 52.1808L33.2683 52.1816L33.2699 52.1834L33.2737 52.1874L33.2836 52.1978C33.2912 52.2058 33.3009 52.2157 33.3126 52.2276C33.3361 52.2513 33.3677 52.2825 33.4076 52.3201C33.4874 52.3953 33.6002 52.4964 33.7463 52.6145C34.0382 52.8505 34.4645 53.1558 35.0256 53.4582C36.1513 54.065 37.813 54.6559 40 54.6559C42.187 54.6559 43.8487 54.065 44.9744 53.4582C45.5355 53.1558 45.9618 52.8505 46.2537 52.6145C46.3998 52.4964 46.5126 52.3953 46.5924 52.3201C46.6323 52.2825 46.6639 52.2513 46.6874 52.2276C46.6991 52.2157 46.7088 52.2058 46.7164 52.1978L46.7263 52.1874L46.7301 52.1834L46.7317 52.1816L46.7324 52.1808C46.7324 52.1808 46.7331 52.1801 46 51.5L46.7331 52.1801C46.9047 51.9952 47 51.7522 47 51.5V46.1231C49.9941 44.3378 52 41.4214 52 38V30ZM40 22C34.2802 22 30 25.76 30 30V32C30 31.9998 30 32.0002 30 32V38C30 42.24 34.2802 46 40 46C45.7198 46 50 42.24 50 38V30C50 25.76 45.7198 22 40 22ZM40 48C41.7638 48 43.4629 47.6766 45 47.0895V51.0562L44.9963 51.0592C44.7882 51.2274 44.4645 51.4611 44.0256 51.6977C43.1513 52.1689 41.813 52.6559 40 52.6559C38.187 52.6559 36.8487 52.1689 35.9744 51.6977C35.5355 51.4611 35.2118 51.2274 35.0037 51.0592L35 51.0562V47.0895C36.5371 47.6766 38.2362 48 40 48Z" fill="#0D0043"/>
<path fill-rule="evenodd" clip-rule="evenodd" d="M45 49C45 48.4477 45.4477 48 46 48V49C46 48 45.9998 48 46 48L46.0063 48L46.0213 48.0001L46.0765 48.0004C46.1243 48.0008 46.1936 48.0016 46.2827 48.0031C46.4607 48.0061 46.7175 48.0121 47.0375 48.0241C47.6768 48.0481 48.5709 48.096 49.5933 48.1919C51.6186 48.3817 54.2247 48.7663 56.3511 49.5637C58.6212 50.4149 60.395 52.2256 61.649 54.1395C62.9053 56.0571 63.7115 58.1864 63.9864 59.8356C64.0772 60.3804 63.7092 60.8956 63.1644 60.9864C62.6196 61.0772 62.1044 60.7092 62.0136 60.1644C61.7885 58.8136 61.0947 56.9429 59.976 55.2355C58.855 53.5244 57.3788 52.0851 55.6489 51.4363C53.7753 50.7337 51.3814 50.3683 49.4067 50.1831C48.4291 50.0915 47.5732 50.0456 46.9625 50.0227C46.6575 50.0113 46.4143 50.0056 46.2486 50.0028C46.1657 50.0014 46.1023 50.0007 46.0602 50.0003L46.0133 50L46.0024 50L46.0001 50C46.0002 50 46.0001 50 46.0001 50M45 49C45 49.5522 45.4479 49.9999 46.0001 50L45 49Z" fill="#001B43"/>
<path fill-rule="evenodd" clip-rule="evenodd" d="M45 49C45 48.4477 45.4477 48 46 48V49C46 48 45.9998 48 46 48L46.0063 48L46.0213 48.0001L46.0765 48.0004C46.1243 48.0008 46.1936 48.0016 46.2827 48.0031C46.4607 48.0061 46.7175 48.0121 47.0375 48.0241C47.6768 48.0481 48.5709 48.096 49.5933 48.1919C51.6186 48.3817 54.2247 48.7663 56.3511 49.5637C58.6212 50.4149 60.395 52.2256 61.649 54.1395C62.9053 56.0571 63.7115 58.1864 63.9864 59.8356C64.0772 60.3804 63.7092 60.8956 63.1644 60.9864C62.6196 61.0772 62.1044 60.7092 62.0136 60.1644C61.7885 58.8136 61.0947 56.9429 59.976 55.2355C58.855 53.5244 57.3788 52.0851 55.6489 51.4363C53.7753 50.7337 51.3814 50.3683 49.4067 50.1831C48.4291 50.0915 47.5732 50.0456 46.9625 50.0227C46.6575 50.0113 46.4143 50.0056 46.2486 50.0028C46.1657 50.0014 46.1023 50.0007 46.0602 50.0003L46.0133 50L46.0024 50L46.0001 50C46.0002 50 46.0001 50 46.0001 50M45 49C45 49.5522 45.4479 49.9999 46.0001 50L45 49Z" fill="#0D0043"/>
<path fill-rule="evenodd" clip-rule="evenodd" d="M35 49C35 48.4477 34.5523 48 34 48V49C34 48 34.0002 48 34 48L33.9937 48L33.9787 48.0001L33.9235 48.0004C33.8757 48.0008 33.8064 48.0016 33.7173 48.0031C33.5393 48.0061 33.2825 48.0121 32.9625 48.0241C32.3232 48.0481 31.4291 48.096 30.4067 48.1919C28.3814 48.3817 25.7753 48.7663 23.6489 49.5637C21.3788 50.4149 19.605 52.2256 18.351 54.1395C17.0947 56.0571 16.2885 58.1864 16.0136 59.8356C15.9228 60.3804 16.2908 60.8956 16.8356 60.9864C17.3804 61.0772 17.8956 60.7092 17.9864 60.1644C18.2115 58.8136 18.9053 56.9429 20.024 55.2355C21.145 53.5244 22.6212 52.0851 24.3511 51.4363C26.2247 50.7337 28.6186 50.3683 30.5933 50.1831C31.5709 50.0915 32.4268 50.0456 33.0375 50.0227C33.3425 50.0113 33.5857 50.0056 33.7514 50.0028C33.8343 50.0014 33.8977 50.0007 33.9398 50.0003L33.9867 50L33.9976 50L33.9999 50C33.9998 50 33.9999 50 33.9999 50M35 49C35 49.5522 34.5521 49.9999 33.9999 50L35 49Z" fill="#001B43"/>
<path fill-rule="evenodd" clip-rule="evenodd" d="M35 49C35 48.4477 34.5523 48 34 48V49C34 48 34.0002 48 34 48L33.9937 48L33.9787 48.0001L33.9235 48.0004C33.8757 48.0008 33.8064 48.0016 33.7173 48.0031C33.5393 48.0061 33.2825 48.0121 32.9625 48.0241C32.3232 48.0481 31.4291 48.096 30.4067 48.1919C28.3814 48.3817 25.7753 48.7663 23.6489 49.5637C21.3788 50.4149 19.605 52.2256 18.351 54.1395C17.0947 56.0571 16.2885 58.1864 16.0136 59.8356C15.9228 60.3804 16.2908 60.8956 16.8356 60.9864C17.3804 61.0772 17.8956 60.7092 17.9864 60.1644C18.2115 58.8136 18.9053 56.9429 20.024 55.2355C21.145 53.5244 22.6212 52.0851 24.3511 51.4363C26.2247 50.7337 28.6186 50.3683 30.5933 50.1831C31.5709 50.0915 32.4268 50.0456 33.0375 50.0227C33.3425 50.0113 33.5857 50.0056 33.7514 50.0028C33.8343 50.0014 33.8977 50.0007 33.9398 50.0003L33.9867 50L33.9976 50L33.9999 50C33.9998 50 33.9999 50 33.9999 50M35 49C35 49.5522 34.5521 49.9999 33.9999 50L35 49Z" fill="#0D0043"/>
</svg>
