<svg width="80" height="80" viewBox="0 0 80 80" fill="none" xmlns="http://www.w3.org/2000/svg">
<path fill-rule="evenodd" clip-rule="evenodd" d="M32.9284 63.3723C32.723 63.8845 32.1414 64.1335 31.6289 63.9285C31.1161 63.7234 30.8667 63.1414 31.0718 62.6286L32.0003 63C31.0718 62.6286 31.0722 62.6276 31.0722 62.6276L31.0726 62.6265L31.0737 62.6239L31.0763 62.6174L31.084 62.5989C31.0901 62.5842 31.0984 62.5649 31.1089 62.5411C31.1298 62.4936 31.1594 62.4285 31.1984 62.3483C31.2763 62.188 31.3917 61.9665 31.549 61.7043C31.8629 61.1812 32.3486 60.4874 33.0432 59.7929C34.4447 58.3914 36.6881 57 40.0003 57C43.3124 57 45.5559 58.3914 46.9574 59.7929C47.6519 60.4874 48.1377 61.1812 48.4515 61.7043C48.6088 61.9665 48.7243 62.188 48.8021 62.3483C48.8411 62.4285 48.8708 62.4936 48.8917 62.5411C48.9021 62.5649 48.9104 62.5842 48.9165 62.5989L48.9242 62.6174L48.9269 62.6239L48.9283 62.6276C48.9283 62.6276 48.9287 62.6286 48.0003 63L48.9287 62.6286C49.1339 63.1414 48.8844 63.7234 48.3717 63.9285C47.8601 64.1331 47.2796 63.8853 47.0732 63.375L47.0724 63.3729C47.0716 63.3709 47.0701 63.3675 47.0684 63.3636C47.0665 63.3591 47.064 63.3535 47.061 63.3466C47.0497 63.3209 47.0305 63.2786 47.0031 63.2221C46.9481 63.1089 46.8604 62.9398 46.7365 62.7332C46.4879 62.3188 46.0986 61.7626 45.5432 61.2071C44.4447 60.1086 42.6881 59 40.0003 59C37.3124 59 35.5559 60.1086 34.4574 61.2071C33.9019 61.7626 33.5127 62.3188 33.264 62.7332C33.1401 62.9398 33.0524 63.1089 32.9974 63.2221C32.97 63.2786 32.9508 63.3209 32.9395 63.3466C32.9338 63.3594 32.9302 63.368 32.9284 63.3723ZM32.9284 63.3723C32.9275 63.3744 32.9271 63.3754 32.9271 63.3754L32.9276 63.3743L32.9284 63.3723Z" fill="#001B43"/>
<path fill-rule="evenodd" clip-rule="evenodd" d="M32.9284 63.3723C32.723 63.8845 32.1414 64.1335 31.6289 63.9285C31.1161 63.7234 30.8667 63.1414 31.0718 62.6286L32.0003 63C31.0718 62.6286 31.0722 62.6276 31.0722 62.6276L31.0726 62.6265L31.0737 62.6239L31.0763 62.6174L31.084 62.5989C31.0901 62.5842 31.0984 62.5649 31.1089 62.5411C31.1298 62.4936 31.1594 62.4285 31.1984 62.3483C31.2763 62.188 31.3917 61.9665 31.549 61.7043C31.8629 61.1812 32.3486 60.4874 33.0432 59.7929C34.4447 58.3914 36.6881 57 40.0003 57C43.3124 57 45.5559 58.3914 46.9574 59.7929C47.6519 60.4874 48.1377 61.1812 48.4515 61.7043C48.6088 61.9665 48.7243 62.188 48.8021 62.3483C48.8411 62.4285 48.8708 62.4936 48.8917 62.5411C48.9021 62.5649 48.9104 62.5842 48.9165 62.5989L48.9242 62.6174L48.9269 62.6239L48.9283 62.6276C48.9283 62.6276 48.9287 62.6286 48.0003 63L48.9287 62.6286C49.1339 63.1414 48.8844 63.7234 48.3717 63.9285C47.8601 64.1331 47.2796 63.8853 47.0732 63.375L47.0724 63.3729C47.0716 63.3709 47.0701 63.3675 47.0684 63.3636C47.0665 63.3591 47.064 63.3535 47.061 63.3466C47.0497 63.3209 47.0305 63.2786 47.0031 63.2221C46.9481 63.1089 46.8604 62.9398 46.7365 62.7332C46.4879 62.3188 46.0986 61.7626 45.5432 61.2071C44.4447 60.1086 42.6881 59 40.0003 59C37.3124 59 35.5559 60.1086 34.4574 61.2071C33.9019 61.7626 33.5127 62.3188 33.264 62.7332C33.1401 62.9398 33.0524 63.1089 32.9974 63.2221C32.97 63.2786 32.9508 63.3209 32.9395 63.3466C32.9338 63.3594 32.9302 63.368 32.9284 63.3723ZM32.9284 63.3723C32.9275 63.3744 32.9271 63.3754 32.9271 63.3754L32.9276 63.3743L32.9284 63.3723Z" fill="#0D0043"/>
<path fill-rule="evenodd" clip-rule="evenodd" d="M36.4287 49.5C36.4287 47.567 37.9957 46 39.9287 46C41.8617 46 43.4287 47.567 43.4287 49.5V52.5C43.4287 54.433 41.8617 56 39.9287 56C37.9957 56 36.4287 54.433 36.4287 52.5V49.5ZM34.4287 52.5V49.5C34.4287 46.4624 36.8911 44 39.9287 44C42.9663 44 45.4287 46.4624 45.4287 49.5V52.5C45.4287 55.5376 42.9663 58 39.9287 58C36.8911 58 34.4287 55.5376 34.4287 52.5Z" fill="#001B43"/>
<path fill-rule="evenodd" clip-rule="evenodd" d="M36.4287 49.5C36.4287 47.567 37.9957 46 39.9287 46C41.8617 46 43.4287 47.567 43.4287 49.5V52.5C43.4287 54.433 41.8617 56 39.9287 56C37.9957 56 36.4287 54.433 36.4287 52.5V49.5ZM34.4287 52.5V49.5C34.4287 46.4624 36.8911 44 39.9287 44C42.9663 44 45.4287 46.4624 45.4287 49.5V52.5C45.4287 55.5376 42.9663 58 39.9287 58C36.8911 58 34.4287 55.5376 34.4287 52.5Z" fill="#0D0043"/>
<path fill-rule="evenodd" clip-rule="evenodd" d="M47.9284 59.3723C47.723 59.8845 47.1414 60.1335 46.6289 59.9285C46.1161 59.7234 45.8667 59.1414 46.0718 58.6286L47.0003 59C46.0718 58.6286 46.0722 58.6276 46.0722 58.6276L46.0726 58.6265L46.0737 58.6239L46.0763 58.6174L46.084 58.5989C46.0901 58.5842 46.0984 58.5649 46.1089 58.5411C46.1298 58.4936 46.1594 58.4285 46.1984 58.3483C46.2763 58.188 46.3917 57.9665 46.549 57.7043C46.8629 57.1812 47.3486 56.4874 48.0432 55.7929C49.4447 54.3914 51.6881 53 55.0003 53C58.3124 53 60.5559 54.3914 61.9574 55.7929C62.6519 56.4874 63.1377 57.1812 63.4515 57.7043C63.6088 57.9665 63.7243 58.188 63.8021 58.3483C63.8411 58.4285 63.8708 58.4936 63.8917 58.5411C63.9021 58.5649 63.9104 58.5842 63.9165 58.5989L63.9242 58.6174L63.9269 58.6239L63.9283 58.6276C63.9283 58.6276 63.9287 58.6286 63.0003 59L63.9287 58.6286C64.1339 59.1414 63.8844 59.7234 63.3717 59.9285C62.8601 60.1331 62.2796 59.8853 62.0732 59.375L62.0724 59.3729C62.0716 59.3709 62.0701 59.3675 62.0684 59.3636C62.0665 59.3591 62.064 59.3535 62.061 59.3466C62.0497 59.3209 62.0305 59.2786 62.0031 59.2221C61.9481 59.1089 61.8604 58.9398 61.7365 58.7332C61.4879 58.3188 61.0986 57.7626 60.5432 57.2071C59.4447 56.1086 57.6881 55 55.0003 55C52.3124 55 50.5559 56.1086 49.4574 57.2071C48.9019 57.7626 48.5127 58.3188 48.264 58.7332C48.1401 58.9398 48.0524 59.1089 47.9974 59.2221C47.97 59.2786 47.9508 59.3209 47.9395 59.3466C47.9338 59.3594 47.9302 59.368 47.9284 59.3723ZM47.9284 59.3723C47.9275 59.3744 47.9271 59.3754 47.9271 59.3754L47.9276 59.3743L47.9284 59.3723Z" fill="#001B43"/>
<path fill-rule="evenodd" clip-rule="evenodd" d="M47.9284 59.3723C47.723 59.8845 47.1414 60.1335 46.6289 59.9285C46.1161 59.7234 45.8667 59.1414 46.0718 58.6286L47.0003 59C46.0718 58.6286 46.0722 58.6276 46.0722 58.6276L46.0726 58.6265L46.0737 58.6239L46.0763 58.6174L46.084 58.5989C46.0901 58.5842 46.0984 58.5649 46.1089 58.5411C46.1298 58.4936 46.1594 58.4285 46.1984 58.3483C46.2763 58.188 46.3917 57.9665 46.549 57.7043C46.8629 57.1812 47.3486 56.4874 48.0432 55.7929C49.4447 54.3914 51.6881 53 55.0003 53C58.3124 53 60.5559 54.3914 61.9574 55.7929C62.6519 56.4874 63.1377 57.1812 63.4515 57.7043C63.6088 57.9665 63.7243 58.188 63.8021 58.3483C63.8411 58.4285 63.8708 58.4936 63.8917 58.5411C63.9021 58.5649 63.9104 58.5842 63.9165 58.5989L63.9242 58.6174L63.9269 58.6239L63.9283 58.6276C63.9283 58.6276 63.9287 58.6286 63.0003 59L63.9287 58.6286C64.1339 59.1414 63.8844 59.7234 63.3717 59.9285C62.8601 60.1331 62.2796 59.8853 62.0732 59.375L62.0724 59.3729C62.0716 59.3709 62.0701 59.3675 62.0684 59.3636C62.0665 59.3591 62.064 59.3535 62.061 59.3466C62.0497 59.3209 62.0305 59.2786 62.0031 59.2221C61.9481 59.1089 61.8604 58.9398 61.7365 58.7332C61.4879 58.3188 61.0986 57.7626 60.5432 57.2071C59.4447 56.1086 57.6881 55 55.0003 55C52.3124 55 50.5559 56.1086 49.4574 57.2071C48.9019 57.7626 48.5127 58.3188 48.264 58.7332C48.1401 58.9398 48.0524 59.1089 47.9974 59.2221C47.97 59.2786 47.9508 59.3209 47.9395 59.3466C47.9338 59.3594 47.9302 59.368 47.9284 59.3723ZM47.9284 59.3723C47.9275 59.3744 47.9271 59.3754 47.9271 59.3754L47.9276 59.3743L47.9284 59.3723Z" fill="#0D0043"/>
<path fill-rule="evenodd" clip-rule="evenodd" d="M51.4287 45.5C51.4287 43.567 52.9957 42 54.9287 42C56.8617 42 58.4287 43.567 58.4287 45.5V48.5C58.4287 50.433 56.8617 52 54.9287 52C52.9957 52 51.4287 50.433 51.4287 48.5V45.5ZM49.4287 48.5V45.5C49.4287 42.4624 51.8911 40 54.9287 40C57.9663 40 60.4287 42.4624 60.4287 45.5V48.5C60.4287 51.5376 57.9663 54 54.9287 54C51.8911 54 49.4287 51.5376 49.4287 48.5Z" fill="#001B43"/>
<path fill-rule="evenodd" clip-rule="evenodd" d="M51.4287 45.5C51.4287 43.567 52.9957 42 54.9287 42C56.8617 42 58.4287 43.567 58.4287 45.5V48.5C58.4287 50.433 56.8617 52 54.9287 52C52.9957 52 51.4287 50.433 51.4287 48.5V45.5ZM49.4287 48.5V45.5C49.4287 42.4624 51.8911 40 54.9287 40C57.9663 40 60.4287 42.4624 60.4287 45.5V48.5C60.4287 51.5376 57.9663 54 54.9287 54C51.8911 54 49.4287 51.5376 49.4287 48.5Z" fill="#0D0043"/>
<path fill-rule="evenodd" clip-rule="evenodd" d="M21.4287 45.5C21.4287 43.567 22.9957 42 24.9287 42C26.8617 42 28.4287 43.567 28.4287 45.5V48.5C28.4287 50.433 26.8617 52 24.9287 52C22.9957 52 21.4287 50.433 21.4287 48.5V45.5ZM19.4287 48.5V45.5C19.4287 42.4624 21.8911 40 24.9287 40C27.9663 40 30.4287 42.4624 30.4287 45.5V48.5C30.4287 51.5376 27.9663 54 24.9287 54C21.8911 54 19.4287 51.5376 19.4287 48.5Z" fill="#001B43"/>
<path fill-rule="evenodd" clip-rule="evenodd" d="M21.4287 45.5C21.4287 43.567 22.9957 42 24.9287 42C26.8617 42 28.4287 43.567 28.4287 45.5V48.5C28.4287 50.433 26.8617 52 24.9287 52C22.9957 52 21.4287 50.433 21.4287 48.5V45.5ZM19.4287 48.5V45.5C19.4287 42.4624 21.8911 40 24.9287 40C27.9663 40 30.4287 42.4624 30.4287 45.5V48.5C30.4287 51.5376 27.9663 54 24.9287 54C21.8911 54 19.4287 51.5376 19.4287 48.5Z" fill="#0D0043"/>
<path fill-rule="evenodd" clip-rule="evenodd" d="M17.9284 59.3723C17.723 59.8845 17.1414 60.1335 16.6289 59.9285C16.1161 59.7234 15.8667 59.1414 16.0718 58.6286L17.0003 59C16.0718 58.6286 16.0722 58.6276 16.0722 58.6276L16.0726 58.6265L16.0737 58.6239L16.0763 58.6174L16.084 58.5989C16.0901 58.5842 16.0984 58.5649 16.1089 58.5411C16.1298 58.4936 16.1594 58.4285 16.1984 58.3483C16.2763 58.188 16.3917 57.9665 16.549 57.7043C16.8629 57.1812 17.3486 56.4874 18.0432 55.7929C19.4447 54.3914 21.6881 53 25.0003 53C28.3124 53 30.5559 54.3914 31.9574 55.7929C32.6519 56.4874 33.1377 57.1812 33.4515 57.7043C33.6088 57.9665 33.7243 58.188 33.8021 58.3483C33.8411 58.4285 33.8708 58.4936 33.8917 58.5411C33.9021 58.5649 33.9104 58.5842 33.9165 58.5989L33.9242 58.6174L33.9269 58.6239L33.9283 58.6276C33.9283 58.6276 33.9287 58.6286 33.0003 59L33.9287 58.6286C34.1339 59.1414 33.8844 59.7234 33.3717 59.9285C32.8601 60.1331 32.2796 59.8853 32.0732 59.375L32.0724 59.3729C32.0716 59.3709 32.0701 59.3675 32.0684 59.3636C32.0665 59.3591 32.064 59.3535 32.061 59.3466C32.0497 59.3209 32.0305 59.2786 32.0031 59.2221C31.9481 59.1089 31.8604 58.9398 31.7365 58.7332C31.4879 58.3188 31.0986 57.7626 30.5432 57.2071C29.4447 56.1086 27.6881 55 25.0003 55C22.3124 55 20.5559 56.1086 19.4574 57.2071C18.9019 57.7626 18.5127 58.3188 18.264 58.7332C18.1401 58.9398 18.0524 59.1089 17.9974 59.2221C17.97 59.2786 17.9508 59.3209 17.9395 59.3466C17.9338 59.3594 17.9302 59.368 17.9284 59.3723ZM17.9284 59.3723C17.9275 59.3744 17.9271 59.3754 17.9271 59.3754L17.9276 59.3743L17.9284 59.3723Z" fill="#001B43"/>
<path fill-rule="evenodd" clip-rule="evenodd" d="M17.9284 59.3723C17.723 59.8845 17.1414 60.1335 16.6289 59.9285C16.1161 59.7234 15.8667 59.1414 16.0718 58.6286L17.0003 59C16.0718 58.6286 16.0722 58.6276 16.0722 58.6276L16.0726 58.6265L16.0737 58.6239L16.0763 58.6174L16.084 58.5989C16.0901 58.5842 16.0984 58.5649 16.1089 58.5411C16.1298 58.4936 16.1594 58.4285 16.1984 58.3483C16.2763 58.188 16.3917 57.9665 16.549 57.7043C16.8629 57.1812 17.3486 56.4874 18.0432 55.7929C19.4447 54.3914 21.6881 53 25.0003 53C28.3124 53 30.5559 54.3914 31.9574 55.7929C32.6519 56.4874 33.1377 57.1812 33.4515 57.7043C33.6088 57.9665 33.7243 58.188 33.8021 58.3483C33.8411 58.4285 33.8708 58.4936 33.8917 58.5411C33.9021 58.5649 33.9104 58.5842 33.9165 58.5989L33.9242 58.6174L33.9269 58.6239L33.9283 58.6276C33.9283 58.6276 33.9287 58.6286 33.0003 59L33.9287 58.6286C34.1339 59.1414 33.8844 59.7234 33.3717 59.9285C32.8601 60.1331 32.2796 59.8853 32.0732 59.375L32.0724 59.3729C32.0716 59.3709 32.0701 59.3675 32.0684 59.3636C32.0665 59.3591 32.064 59.3535 32.061 59.3466C32.0497 59.3209 32.0305 59.2786 32.0031 59.2221C31.9481 59.1089 31.8604 58.9398 31.7365 58.7332C31.4879 58.3188 31.0986 57.7626 30.5432 57.2071C29.4447 56.1086 27.6881 55 25.0003 55C22.3124 55 20.5559 56.1086 19.4574 57.2071C18.9019 57.7626 18.5127 58.3188 18.264 58.7332C18.1401 58.9398 18.0524 59.1089 17.9974 59.2221C17.97 59.2786 17.9508 59.3209 17.9395 59.3466C17.9338 59.3594 17.9302 59.368 17.9284 59.3723ZM17.9284 59.3723C17.9275 59.3744 17.9271 59.3754 17.9271 59.3754L17.9276 59.3743L17.9284 59.3723Z" fill="#0D0043"/>
<path d="M39.6577 36H40.5575C40.7791 36 40.89 35.8922 40.89 35.6766V34.1356H40.9878C41.9136 34.1356 42.6438 33.8755 43.1785 33.3555C43.7262 32.8228 44 32.0935 44 31.1677V30.2545C44 29.1637 43.7196 28.3964 43.1589 27.9524C42.5982 27.4958 41.8615 27.2422 40.9487 27.1914L39.9511 27.1534C39.26 27.1153 38.7449 27.0012 38.4059 26.8109C38.0799 26.6207 37.9169 26.2846 37.9169 25.8026V25.1558C37.9169 24.5597 38.0342 24.1411 38.2689 23.9001C38.5037 23.6465 38.9079 23.5196 39.4817 23.5196H40.3814C40.9421 23.5196 41.3399 23.6401 41.5746 23.8811C41.8223 24.1094 41.9462 24.4899 41.9462 25.0226V25.2699C41.9462 25.4982 42.0636 25.6124 42.2983 25.6124H43.5306C43.7522 25.6124 43.8631 25.4982 43.8631 25.2699V24.8514C43.8631 23.9382 43.6023 23.2152 43.0807 22.6825C42.5721 22.1498 41.8745 21.8835 40.9878 21.8835H40.89V20.3234C40.89 20.1078 40.7791 20 40.5575 20H39.6577C39.436 20 39.3252 20.1078 39.3252 20.3234V21.8835H38.9927C38.0538 21.8835 37.317 22.1498 36.7824 22.6825C36.2608 23.2025 36 23.9255 36 24.8514V25.7455C36 26.9378 36.3325 27.7558 36.9976 28.1998C37.3105 28.4154 37.6561 28.5739 38.0342 28.6754C38.4124 28.7769 39.0839 28.8466 40.0489 28.8847C40.727 28.9227 41.2355 29.0432 41.5746 29.2461C41.9136 29.4364 42.0831 29.7979 42.0831 30.3306V30.9394C42.0831 31.4974 41.9593 31.9033 41.7115 32.157C41.4637 32.3979 41.066 32.5184 40.5183 32.5184H39.5012C38.9405 32.5184 38.5363 32.4043 38.2885 32.176C38.0408 31.935 37.9169 31.5482 37.9169 31.0155V30.7301C37.9169 30.5018 37.806 30.3876 37.5844 30.3876H36.3521C36.1174 30.3876 36 30.5018 36 30.7301V31.1677C36 32.0935 36.2673 32.8228 36.802 33.3555C37.3366 33.8755 38.0668 34.1356 38.9927 34.1356H39.3252V35.6766C39.3252 35.8922 39.436 36 39.6577 36Z" fill="#001B43"/>
<path d="M39.6577 36H40.5575C40.7791 36 40.89 35.8922 40.89 35.6766V34.1356H40.9878C41.9136 34.1356 42.6438 33.8755 43.1785 33.3555C43.7262 32.8228 44 32.0935 44 31.1677V30.2545C44 29.1637 43.7196 28.3964 43.1589 27.9524C42.5982 27.4958 41.8615 27.2422 40.9487 27.1914L39.9511 27.1534C39.26 27.1153 38.7449 27.0012 38.4059 26.8109C38.0799 26.6207 37.9169 26.2846 37.9169 25.8026V25.1558C37.9169 24.5597 38.0342 24.1411 38.2689 23.9001C38.5037 23.6465 38.9079 23.5196 39.4817 23.5196H40.3814C40.9421 23.5196 41.3399 23.6401 41.5746 23.8811C41.8223 24.1094 41.9462 24.4899 41.9462 25.0226V25.2699C41.9462 25.4982 42.0636 25.6124 42.2983 25.6124H43.5306C43.7522 25.6124 43.8631 25.4982 43.8631 25.2699V24.8514C43.8631 23.9382 43.6023 23.2152 43.0807 22.6825C42.5721 22.1498 41.8745 21.8835 40.9878 21.8835H40.89V20.3234C40.89 20.1078 40.7791 20 40.5575 20H39.6577C39.436 20 39.3252 20.1078 39.3252 20.3234V21.8835H38.9927C38.0538 21.8835 37.317 22.1498 36.7824 22.6825C36.2608 23.2025 36 23.9255 36 24.8514V25.7455C36 26.9378 36.3325 27.7558 36.9976 28.1998C37.3105 28.4154 37.6561 28.5739 38.0342 28.6754C38.4124 28.7769 39.0839 28.8466 40.0489 28.8847C40.727 28.9227 41.2355 29.0432 41.5746 29.2461C41.9136 29.4364 42.0831 29.7979 42.0831 30.3306V30.9394C42.0831 31.4974 41.9593 31.9033 41.7115 32.157C41.4637 32.3979 41.066 32.5184 40.5183 32.5184H39.5012C38.9405 32.5184 38.5363 32.4043 38.2885 32.176C38.0408 31.935 37.9169 31.5482 37.9169 31.0155V30.7301C37.9169 30.5018 37.806 30.3876 37.5844 30.3876H36.3521C36.1174 30.3876 36 30.5018 36 30.7301V31.1677C36 32.0935 36.2673 32.8228 36.802 33.3555C37.3366 33.8755 38.0668 34.1356 38.9927 34.1356H39.3252V35.6766C39.3252 35.8922 39.436 36 39.6577 36Z" fill="#0D0043"/>
<path fill-rule="evenodd" clip-rule="evenodd" d="M52 28C52 34.6274 46.6274 40 40 40C33.3726 40 28 34.6274 28 28C28 21.3726 33.3726 16 40 16C46.6274 16 52 21.3726 52 28ZM50 28C50 33.5228 45.5228 38 40 38C34.4772 38 30 33.5228 30 28C30 22.4772 34.4772 18 40 18C45.5228 18 50 22.4772 50 28Z" fill="#001B43"/>
<path fill-rule="evenodd" clip-rule="evenodd" d="M52 28C52 34.6274 46.6274 40 40 40C33.3726 40 28 34.6274 28 28C28 21.3726 33.3726 16 40 16C46.6274 16 52 21.3726 52 28ZM50 28C50 33.5228 45.5228 38 40 38C34.4772 38 30 33.5228 30 28C30 22.4772 34.4772 18 40 18C45.5228 18 50 22.4772 50 28Z" fill="#0D0043"/>
</svg>
