<svg width="24" height="24" viewBox="0 0 24 24" fill="none" xmlns="http://www.w3.org/2000/svg">
<g clip-path="url(#clip0)">
<path fill-rule="evenodd" clip-rule="evenodd" d="M7.17237 3.97279C5.99035 5.21904 5.30923 7.11118 5.97018 9.75502C6.9379 13.6259 8.56343 16.7744 9.98047 18.9522C10.6887 20.0405 11.34 20.879 11.8227 21.4372C11.8852 21.5094 11.9444 21.5764 12 21.6382C12.0557 21.5764 12.1148 21.5094 12.1773 21.4372C12.66 20.879 13.3114 20.0405 14.0196 18.9522C15.4366 16.7744 17.0622 13.6259 18.0299 9.75502C18.6908 7.11119 18.0097 5.21904 16.8277 3.97279C15.6075 2.68627 13.7648 1.99756 12 1.99756C10.2352 1.99756 8.39258 2.68627 7.17237 3.97279ZM12.5003 22.1427C12.5005 22.1428 12.5007 22.143 12.5009 22.1431C12.5016 22.1437 12.502 22.144 12.5021 22.144M5.72125 2.59646C7.36986 0.858271 9.76483 -0.00244141 12 -0.00244141C14.2352 -0.00244141 16.6302 0.858273 18.2788 2.59647C19.9656 4.37493 20.7845 6.98279 19.9702 10.2401C18.9379 14.3692 17.2071 17.7207 15.6959 20.043C14.94 21.2046 14.2344 22.1161 13.6901 22.7454C13.4192 23.0587 13.1808 23.3107 12.9902 23.4919C12.897 23.5805 12.8009 23.6659 12.7089 23.7358C12.6645 23.7695 12.6014 23.8147 12.5267 23.8564C12.5257 23.8569 12.5245 23.8576 12.5229 23.8585C12.484 23.8806 12.2778 23.9976 12 23.9976C11.7223 23.9976 11.5161 23.8806 11.4771 23.8585C11.4756 23.8576 11.4743 23.8569 11.4733 23.8564C11.3987 23.8147 11.3356 23.7695 11.2912 23.7358C11.1992 23.6659 11.1031 23.5805 11.0098 23.4919C10.8192 23.3107 10.5809 23.0587 10.3099 22.7454C9.76569 22.1161 9.06001 21.2046 8.30413 20.043C6.793 17.7207 5.06217 14.3692 4.0299 10.2401C3.21558 6.98278 4.03445 4.37493 5.72125 2.59646Z" fill="#FFDB4D"/>
<path fill-rule="evenodd" clip-rule="evenodd" d="M7.17237 3.97279C5.99035 5.21904 5.30923 7.11118 5.97018 9.75502C6.9379 13.6259 8.56343 16.7744 9.98047 18.9522C10.6887 20.0405 11.34 20.879 11.8227 21.4372C11.8852 21.5094 11.9444 21.5764 12 21.6382C12.0557 21.5764 12.1148 21.5094 12.1773 21.4372C12.66 20.879 13.3114 20.0405 14.0196 18.9522C15.4366 16.7744 17.0622 13.6259 18.0299 9.75502C18.6908 7.11119 18.0097 5.21904 16.8277 3.97279C15.6075 2.68627 13.7648 1.99756 12 1.99756C10.2352 1.99756 8.39258 2.68627 7.17237 3.97279ZM12.5003 22.1427C12.5005 22.1428 12.5007 22.143 12.5009 22.1431C12.5016 22.1437 12.502 22.144 12.5021 22.144M5.72125 2.59646C7.36986 0.858271 9.76483 -0.00244141 12 -0.00244141C14.2352 -0.00244141 16.6302 0.858273 18.2788 2.59647C19.9656 4.37493 20.7845 6.98279 19.9702 10.2401C18.9379 14.3692 17.2071 17.7207 15.6959 20.043C14.94 21.2046 14.2344 22.1161 13.6901 22.7454C13.4192 23.0587 13.1808 23.3107 12.9902 23.4919C12.897 23.5805 12.8009 23.6659 12.7089 23.7358C12.6645 23.7695 12.6014 23.8147 12.5267 23.8564C12.5257 23.8569 12.5245 23.8576 12.5229 23.8585C12.484 23.8806 12.2778 23.9976 12 23.9976C11.7223 23.9976 11.5161 23.8806 11.4771 23.8585C11.4756 23.8576 11.4743 23.8569 11.4733 23.8564C11.3987 23.8147 11.3356 23.7695 11.2912 23.7358C11.1992 23.6659 11.1031 23.5805 11.0098 23.4919C10.8192 23.3107 10.5809 23.0587 10.3099 22.7454C9.76569 22.1161 9.06001 21.2046 8.30413 20.043C6.793 17.7207 5.06217 14.3692 4.0299 10.2401C3.21558 6.98278 4.03445 4.37493 5.72125 2.59646Z" fill="#FFE270"/>
<circle cx="12" cy="8.99756" r="2" fill="#FFDB4D"/>
<circle cx="12" cy="8.99756" r="2" fill="#FFE270"/>
</g>
<defs>
<clipPath id="clip0">
<rect width="24" height="24" fill="white"/>
</clipPath>
</defs>
</svg>
