<svg width="80" height="80" viewBox="0 0 80 80" fill="none" xmlns="http://www.w3.org/2000/svg">
<path fill-rule="evenodd" clip-rule="evenodd" d="M40.3457 16.0617C40.1226 15.9794 39.8774 15.9794 39.6543 16.0617L20.6543 23.0617C20.2612 23.2065 20 23.581 20 24C20 24.419 20.2612 24.7935 20.6543 24.9383L26.0041 26.9093C26.0014 26.9392 26 26.9694 26 27V38C26 38.3039 26.1356 38.5761 26.3495 38.7595C24.9384 39.6434 24 41.2121 24 43C24 45.4358 25.7418 47.4648 28.0478 47.9094C28.3684 50.9363 30.2749 53.4982 33 55.1231V57H26.9706C23.5227 57 20.2161 58.3696 17.7782 60.8076L16.2929 62.2929C15.9024 62.6834 15.9024 63.3166 16.2929 63.7071C16.6834 64.0976 17.3166 64.0976 17.7071 63.7071L19.1924 62.2218C21.2553 60.1589 24.0532 59 26.9706 59H33V60.5C33 60.7522 33.0953 60.9952 33.2669 61.1801L34 60.5C33.2669 61.1801 33.2676 61.1808 33.2676 61.1808L33.2683 61.1816L33.2699 61.1834L33.2737 61.1874L33.2836 61.1978C33.2912 61.2058 33.3009 61.2157 33.3126 61.2276C33.3361 61.2513 33.3677 61.2825 33.4076 61.3201C33.4874 61.3953 33.6002 61.4964 33.7463 61.6145C34.0382 61.8505 34.4645 62.1558 35.0256 62.4582C36.1513 63.065 37.813 63.6559 40 63.6559C42.187 63.6559 43.8487 63.065 44.9744 62.4582C45.5355 62.1558 45.9618 61.8505 46.2537 61.6145C46.3998 61.4964 46.5126 61.3953 46.5924 61.3201C46.6323 61.2825 46.6639 61.2513 46.6874 61.2276C46.6991 61.2157 46.7088 61.2058 46.7164 61.1978L46.7263 61.1874L46.7301 61.1834L46.7317 61.1816L46.7324 61.1808C46.7324 61.1808 46.7331 61.1801 46 60.5L46.7331 61.1801C46.9047 60.9952 47 60.7522 47 60.5V58.9401C47.1066 58.9788 47.2217 59 47.3418 59H53.0294C55.9468 59 58.7447 60.1589 60.8076 62.2218L62.2929 63.7071C62.6834 64.0976 63.3166 64.0976 63.7071 63.7071C64.0976 63.3166 64.0976 62.6834 63.7071 62.2929L62.2218 60.8076C59.7839 58.3696 56.4773 57 53.0294 57H47.3418C47.2217 57 47.1066 57.0212 47 57.0599V55.1231C49.7251 53.4982 51.6316 50.9363 51.9522 47.9094C54.2582 47.4648 56 45.4358 56 43C56 41.2121 55.0616 39.6434 53.6505 38.7595C53.8644 38.5761 54 38.3039 54 38V27C54 26.9694 53.9986 26.9392 53.9959 26.9093L58 25.4341V32.1707C56.8348 32.5825 56 33.6938 56 35C56 36.6569 57.3431 38 59 38C60.6569 38 62 36.6569 62 35C62 33.6938 61.1652 32.5825 60 32.1707V24C60 23.7381 59.898 23.4936 59.7255 23.3117C59.679 23.2627 59.6274 23.2183 59.5713 23.1792C59.4958 23.1265 59.4126 23.084 59.3238 23.0536L40.3457 16.0617ZM52 27.6447L40.3457 31.9383C40.1226 32.0206 39.8774 32.0206 39.6543 31.9383L28 27.6447V37H52V27.6447ZM40 29.9343L23.8926 24L40 18.0657L56.1074 24L40 29.9343ZM59 36C59.5523 36 60 35.5523 60 35C60 34.4477 59.5523 34 59 34C58.4477 34 58 34.4477 58 35C58 35.5523 58.4477 36 59 36ZM26 43C26 41.6938 26.8348 40.5825 28 40.1707V45.8293C26.8348 45.4175 26 44.3062 26 43ZM30 47C30 51.24 34.2802 55 40 55C45.7198 55 50 51.24 50 47V39H30V47ZM54 43C54 44.3062 53.1652 45.4175 52 45.8293V40.1707C53.1652 40.5825 54 41.6938 54 43ZM40 57C41.7638 57 43.4629 56.6766 45 56.0895V60.0562L44.9963 60.0592C44.7882 60.2274 44.4645 60.4611 44.0256 60.6977C43.1513 61.1689 41.813 61.6559 40 61.6559C38.187 61.6559 36.8487 61.1689 35.9744 60.6977C35.5355 60.4611 35.2118 60.2274 35.0037 60.0592L35 60.0562V56.0895C36.5371 56.6766 38.2362 57 40 57Z" fill="#001B43"/>
<path fill-rule="evenodd" clip-rule="evenodd" d="M40.3457 16.0617C40.1226 15.9794 39.8774 15.9794 39.6543 16.0617L20.6543 23.0617C20.2612 23.2065 20 23.581 20 24C20 24.419 20.2612 24.7935 20.6543 24.9383L26.0041 26.9093C26.0014 26.9392 26 26.9694 26 27V38C26 38.3039 26.1356 38.5761 26.3495 38.7595C24.9384 39.6434 24 41.2121 24 43C24 45.4358 25.7418 47.4648 28.0478 47.9094C28.3684 50.9363 30.2749 53.4982 33 55.1231V57H26.9706C23.5227 57 20.2161 58.3696 17.7782 60.8076L16.2929 62.2929C15.9024 62.6834 15.9024 63.3166 16.2929 63.7071C16.6834 64.0976 17.3166 64.0976 17.7071 63.7071L19.1924 62.2218C21.2553 60.1589 24.0532 59 26.9706 59H33V60.5C33 60.7522 33.0953 60.9952 33.2669 61.1801L34 60.5C33.2669 61.1801 33.2676 61.1808 33.2676 61.1808L33.2683 61.1816L33.2699 61.1834L33.2737 61.1874L33.2836 61.1978C33.2912 61.2058 33.3009 61.2157 33.3126 61.2276C33.3361 61.2513 33.3677 61.2825 33.4076 61.3201C33.4874 61.3953 33.6002 61.4964 33.7463 61.6145C34.0382 61.8505 34.4645 62.1558 35.0256 62.4582C36.1513 63.065 37.813 63.6559 40 63.6559C42.187 63.6559 43.8487 63.065 44.9744 62.4582C45.5355 62.1558 45.9618 61.8505 46.2537 61.6145C46.3998 61.4964 46.5126 61.3953 46.5924 61.3201C46.6323 61.2825 46.6639 61.2513 46.6874 61.2276C46.6991 61.2157 46.7088 61.2058 46.7164 61.1978L46.7263 61.1874L46.7301 61.1834L46.7317 61.1816L46.7324 61.1808C46.7324 61.1808 46.7331 61.1801 46 60.5L46.7331 61.1801C46.9047 60.9952 47 60.7522 47 60.5V58.9401C47.1066 58.9788 47.2217 59 47.3418 59H53.0294C55.9468 59 58.7447 60.1589 60.8076 62.2218L62.2929 63.7071C62.6834 64.0976 63.3166 64.0976 63.7071 63.7071C64.0976 63.3166 64.0976 62.6834 63.7071 62.2929L62.2218 60.8076C59.7839 58.3696 56.4773 57 53.0294 57H47.3418C47.2217 57 47.1066 57.0212 47 57.0599V55.1231C49.7251 53.4982 51.6316 50.9363 51.9522 47.9094C54.2582 47.4648 56 45.4358 56 43C56 41.2121 55.0616 39.6434 53.6505 38.7595C53.8644 38.5761 54 38.3039 54 38V27C54 26.9694 53.9986 26.9392 53.9959 26.9093L58 25.4341V32.1707C56.8348 32.5825 56 33.6938 56 35C56 36.6569 57.3431 38 59 38C60.6569 38 62 36.6569 62 35C62 33.6938 61.1652 32.5825 60 32.1707V24C60 23.7381 59.898 23.4936 59.7255 23.3117C59.679 23.2627 59.6274 23.2183 59.5713 23.1792C59.4958 23.1265 59.4126 23.084 59.3238 23.0536L40.3457 16.0617ZM52 27.6447L40.3457 31.9383C40.1226 32.0206 39.8774 32.0206 39.6543 31.9383L28 27.6447V37H52V27.6447ZM40 29.9343L23.8926 24L40 18.0657L56.1074 24L40 29.9343ZM59 36C59.5523 36 60 35.5523 60 35C60 34.4477 59.5523 34 59 34C58.4477 34 58 34.4477 58 35C58 35.5523 58.4477 36 59 36ZM26 43C26 41.6938 26.8348 40.5825 28 40.1707V45.8293C26.8348 45.4175 26 44.3062 26 43ZM30 47C30 51.24 34.2802 55 40 55C45.7198 55 50 51.24 50 47V39H30V47ZM54 43C54 44.3062 53.1652 45.4175 52 45.8293V40.1707C53.1652 40.5825 54 41.6938 54 43ZM40 57C41.7638 57 43.4629 56.6766 45 56.0895V60.0562L44.9963 60.0592C44.7882 60.2274 44.4645 60.4611 44.0256 60.6977C43.1513 61.1689 41.813 61.6559 40 61.6559C38.187 61.6559 36.8487 61.1689 35.9744 60.6977C35.5355 60.4611 35.2118 60.2274 35.0037 60.0592L35 60.0562V56.0895C36.5371 56.6766 38.2362 57 40 57Z" fill="#0D0043"/>
</svg>
