<svg width="24" height="25" viewBox="0 0 24 25" fill="none" xmlns="http://www.w3.org/2000/svg">
<g clip-path="url(#clip0)">
<path d="M12.8683 10.7895L13.8683 10.8268H13.8451L12.8683 10.7895Z" fill="#EBF3FF"/>
<path fill-rule="evenodd" clip-rule="evenodd" d="M2.19966 0.00195122C1.26094 0.00195122 0.5 0.771924 0.5 1.72116V22.2827C0.5 23.2323 1.26094 24.002 2.19966 24.002H21.8003C22.739 24.002 23.5 23.2323 23.5 22.2827V1.72116C23.5 0.771924 22.739 0.00195122 21.8003 0.00195122H2.19966ZM7.472 20.0925V9.25511H3.99806V20.0925H7.472ZM5.73501 7.77546C6.94645 7.77546 7.70047 6.94327 7.70047 5.90328C7.67789 4.83988 6.94645 4.03078 5.75799 4.03078C4.56966 4.03078 3.7927 4.83988 3.7927 5.90328C3.7927 6.94327 4.54655 7.77546 5.71237 7.77546H5.73501ZM9.39437 20.0925H12.8682V14.0404C12.8682 13.7165 12.8908 13.393 12.9825 13.1614C13.2336 12.5143 13.8052 11.844 14.7649 11.844C16.022 11.844 16.5248 12.8378 16.5248 14.2947V20.0925H19.9985V13.8785C19.9985 10.5497 18.2846 9.00081 15.999 9.00081C14.1562 9.00081 13.3299 10.051 12.8683 10.7895V9.25511H9.39437C9.43995 10.272 9.39437 20.0925 9.39437 20.0925Z" fill="#EBF3FF"/>
</g>
<defs>
<clipPath id="clip0">
<rect width="24" height="24" fill="white" transform="translate(0 0.00244141)"/>
</clipPath>
</defs>
</svg>
