<svg width="54" height="77" viewBox="0 0 54 77" fill="none" xmlns="http://www.w3.org/2000/svg">
<path fill-rule="evenodd" clip-rule="evenodd" d="M27 2.99268C20.2944 2.99268 13.1095 5.57481 8.1637 10.7894C3.1033 16.1248 0.646666 23.9483 3.08963 33.7203C6.18645 46.1076 11.3789 56.162 15.9123 63.1289C18.18 66.6138 20.297 69.3482 21.9298 71.2363C22.7426 72.1762 23.4576 72.932 24.0294 73.4756C24.3091 73.7415 24.5975 73.9977 24.8735 74.2074C25.0066 74.3085 25.196 74.4442 25.4199 74.5691L25.4313 74.5755C25.5481 74.6418 26.1667 74.9927 27 74.9927C27.8332 74.9927 28.4518 74.6418 28.5687 74.5755L28.5802 74.5691C28.8041 74.4442 28.9934 74.3085 29.1265 74.2074C29.4025 73.9977 29.6909 73.7415 29.9706 73.4756C30.5425 72.932 31.2575 72.1762 32.0703 71.2363C33.703 69.3482 35.8201 66.6138 38.0877 63.1289C42.6211 56.162 47.8136 46.1077 50.9105 33.7203C53.3535 23.9484 50.8968 16.1248 45.8364 10.7894C40.8905 5.57482 33.7056 2.99268 27 2.99268ZM27 35.9927C30.3137 35.9927 33 33.3064 33 29.9927C33 26.679 30.3137 23.9927 27 23.9927C23.6863 23.9927 21 26.679 21 29.9927C21 33.3064 23.6863 35.9927 27 35.9927Z" fill="#10428E"/>
<path fill-rule="evenodd" clip-rule="evenodd" d="M27 2.99268C20.2944 2.99268 13.1095 5.57481 8.1637 10.7894C3.1033 16.1248 0.646666 23.9483 3.08963 33.7203C6.18645 46.1076 11.3789 56.162 15.9123 63.1289C18.18 66.6138 20.297 69.3482 21.9298 71.2363C22.7426 72.1762 23.4576 72.932 24.0294 73.4756C24.3091 73.7415 24.5975 73.9977 24.8735 74.2074C25.0066 74.3085 25.196 74.4442 25.4199 74.5691L25.4313 74.5755C25.5481 74.6418 26.1667 74.9927 27 74.9927C27.8332 74.9927 28.4518 74.6418 28.5687 74.5755L28.5802 74.5691C28.8041 74.4442 28.9934 74.3085 29.1265 74.2074C29.4025 73.9977 29.6909 73.7415 29.9706 73.4756C30.5425 72.932 31.2575 72.1762 32.0703 71.2363C33.703 69.3482 35.8201 66.6138 38.0877 63.1289C42.6211 56.162 47.8136 46.1077 50.9105 33.7203C53.3535 23.9484 50.8968 16.1248 45.8364 10.7894C40.8905 5.57482 33.7056 2.99268 27 2.99268ZM27 35.9927C30.3137 35.9927 33 33.3064 33 29.9927C33 26.679 30.3137 23.9927 27 23.9927C23.6863 23.9927 21 26.679 21 29.9927C21 33.3064 23.6863 35.9927 27 35.9927Z" stroke="#FFDB4D" stroke-width="4"/>
<path fill-rule="evenodd" clip-rule="evenodd" d="M27 2.99268C20.2944 2.99268 13.1095 5.57481 8.1637 10.7894C3.1033 16.1248 0.646666 23.9483 3.08963 33.7203C6.18645 46.1076 11.3789 56.162 15.9123 63.1289C18.18 66.6138 20.297 69.3482 21.9298 71.2363C22.7426 72.1762 23.4576 72.932 24.0294 73.4756C24.3091 73.7415 24.5975 73.9977 24.8735 74.2074C25.0066 74.3085 25.196 74.4442 25.4199 74.5691L25.4313 74.5755C25.5481 74.6418 26.1667 74.9927 27 74.9927C27.8332 74.9927 28.4518 74.6418 28.5687 74.5755L28.5802 74.5691C28.8041 74.4442 28.9934 74.3085 29.1265 74.2074C29.4025 73.9977 29.6909 73.7415 29.9706 73.4756C30.5425 72.932 31.2575 72.1762 32.0703 71.2363C33.703 69.3482 35.8201 66.6138 38.0877 63.1289C42.6211 56.162 47.8136 46.1077 50.9105 33.7203C53.3535 23.9484 50.8968 16.1248 45.8364 10.7894C40.8905 5.57482 33.7056 2.99268 27 2.99268ZM27 35.9927C30.3137 35.9927 33 33.3064 33 29.9927C33 26.679 30.3137 23.9927 27 23.9927C23.6863 23.9927 21 26.679 21 29.9927C21 33.3064 23.6863 35.9927 27 35.9927Z" stroke="#FFE270" stroke-width="4"/>
</svg>
