<svg width="68" height="49" viewBox="0 0 68 49" fill="none" xmlns="http://www.w3.org/2000/svg">
<g clip-path="url(#clip0)">
<path fill-rule="evenodd" clip-rule="evenodd" d="M67.5 45L67.5 48L19.5 48L19.5 45L67.5 45Z" fill="#EBF3FF"/>
<path fill-rule="evenodd" clip-rule="evenodd" d="M67.5 39V42H27.5V39H67.5Z" fill="#EBF3FF"/>
<path fill-rule="evenodd" clip-rule="evenodd" d="M67.5 33L67.5 36L37.5 36L37.5 33L67.5 33Z" fill="#EBF3FF"/>
<path fill-rule="evenodd" clip-rule="evenodd" d="M67.5 21L67.5 24L8.5 24L8.5 21L67.5 21Z" fill="#FFDB4D"/>
<path fill-rule="evenodd" clip-rule="evenodd" d="M67.5 21L67.5 24L8.5 24L8.5 21L67.5 21Z" fill="#FFE270"/>
<path fill-rule="evenodd" clip-rule="evenodd" d="M54.5 15L54.5 18L37.5 18L37.5 15L54.5 15Z" fill="#EBF3FF"/>
<path fill-rule="evenodd" clip-rule="evenodd" d="M67.5 27L67.5 30L37.5 30L37.5 27L67.5 27Z" fill="#EBF3FF"/>
<path fill-rule="evenodd" clip-rule="evenodd" d="M54.5 9L54.5 12L37.5 12L37.5 9L54.5 9Z" fill="#EBF3FF"/>
<path fill-rule="evenodd" clip-rule="evenodd" d="M54.5 4L54.5 6L30.5 6L30.5 4L54.5 4Z" fill="#FFDB4D"/>
<path fill-rule="evenodd" clip-rule="evenodd" d="M54.5 4L54.5 6L30.5 6L30.5 4L54.5 4Z" fill="#FFE270"/>
<path fill-rule="evenodd" clip-rule="evenodd" d="M46.8107 0.00146563L46.8107 1.00146L42.3107 1.00146L37.8107 1.00146L37.8107 0.00146484L46.8107 0.00146563Z" fill="#EBF3FF"/>
<path fill-rule="evenodd" clip-rule="evenodd" d="M5.70715 24.751C6.94979 24.751 7.95715 23.7436 7.95715 22.501C7.95715 21.2583 6.94979 20.251 5.70715 20.251C4.46451 20.251 3.45715 21.2583 3.45715 22.501C3.45715 23.7436 4.46451 24.751 5.70715 24.751ZM5.70715 27.001C8.19243 27.001 10.2072 24.9863 10.2072 22.501C10.2072 20.0157 8.19243 18.001 5.70715 18.001C3.22187 18.001 1.20715 20.0157 1.20715 22.501C1.20715 24.9863 3.22187 27.001 5.70715 27.001Z" fill="#FFDB4D"/>
<path fill-rule="evenodd" clip-rule="evenodd" d="M5.70715 24.751C6.94979 24.751 7.95715 23.7436 7.95715 22.501C7.95715 21.2583 6.94979 20.251 5.70715 20.251C4.46451 20.251 3.45715 21.2583 3.45715 22.501C3.45715 23.7436 4.46451 24.751 5.70715 24.751ZM5.70715 27.001C8.19243 27.001 10.2072 24.9863 10.2072 22.501C10.2072 20.0157 8.19243 18.001 5.70715 18.001C3.22187 18.001 1.20715 20.0157 1.20715 22.501C1.20715 24.9863 3.22187 27.001 5.70715 27.001Z" fill="#FFE270"/>
<path fill-rule="evenodd" clip-rule="evenodd" d="M27.8107 7.00146C28.9153 7.00146 29.8107 6.10603 29.8107 5.00146C29.8107 3.8969 28.9153 3.00146 27.8107 3.00146C26.7062 3.00146 25.8107 3.8969 25.8107 5.00146C25.8107 6.10603 26.7062 7.00146 27.8107 7.00146ZM27.8107 9.00146C30.0199 9.00146 31.8107 7.2106 31.8107 5.00146C31.8107 2.79233 30.0199 1.00146 27.8107 1.00146C25.6016 1.00146 23.8107 2.79233 23.8107 5.00146C23.8107 7.2106 25.6016 9.00146 27.8107 9.00146Z" fill="#FFDB4D"/>
<path fill-rule="evenodd" clip-rule="evenodd" d="M27.8107 7.00146C28.9153 7.00146 29.8107 6.10603 29.8107 5.00146C29.8107 3.8969 28.9153 3.00146 27.8107 3.00146C26.7062 3.00146 25.8107 3.8969 25.8107 5.00146C25.8107 6.10603 26.7062 7.00146 27.8107 7.00146ZM27.8107 9.00146C30.0199 9.00146 31.8107 7.2106 31.8107 5.00146C31.8107 2.79233 30.0199 1.00146 27.8107 1.00146C25.6016 1.00146 23.8107 2.79233 23.8107 5.00146C23.8107 7.2106 25.6016 9.00146 27.8107 9.00146Z" fill="#FFE270"/>
</g>
<defs>
<clipPath id="clip0">
<rect width="67" height="48.001" fill="white" transform="translate(0.603577 0.000488281)"/>
</clipPath>
</defs>
</svg>
