<svg width="24" height="25" viewBox="0 0 24 25" fill="none" xmlns="http://www.w3.org/2000/svg">
<g clip-path="url(#clip0)">
<path d="M21 24.0024H3C1.344 24.0024 0 22.6584 0 21.0024V3.00244C0 1.34644 1.344 0.00244141 3 0.00244141H21C22.656 0.00244141 24 1.34644 24 3.00244V21.0024C24 22.6584 22.656 24.0024 21 24.0024ZM9.216 18.0984C14.874 18.0984 17.97 13.4064 17.97 9.34444C17.97 9.21244 17.97 9.08044 17.964 8.94844C18.564 8.51644 19.086 7.97044 19.5 7.35244C18.948 7.59844 18.354 7.76044 17.73 7.83844C18.366 7.46044 18.852 6.85444 19.086 6.13444C18.492 6.48844 17.832 6.74044 17.13 6.87844C16.566 6.27844 15.768 5.90644 14.886 5.90644C13.188 5.90644 11.808 7.28644 11.808 8.98444C11.808 9.22444 11.838 9.45844 11.886 9.68644C9.33 9.56044 7.062 8.33044 5.544 6.47044C5.28 6.92644 5.13 7.45444 5.13 8.01844C5.13 9.08644 5.676 10.0284 6.498 10.5804C5.994 10.5624 5.52 10.4244 5.106 10.1964C5.106 10.2084 5.106 10.2204 5.106 10.2384C5.106 11.7264 6.168 12.9744 7.572 13.2564C7.314 13.3284 7.044 13.3644 6.762 13.3644C6.564 13.3644 6.372 13.3464 6.186 13.3104C6.576 14.5344 7.716 15.4224 9.06 15.4464C8.004 16.2744 6.678 16.7664 5.238 16.7664C4.992 16.7664 4.746 16.7544 4.506 16.7244C5.862 17.5884 7.482 18.0984 9.216 18.0984Z" fill="#EBF3FF"/>
</g>
<defs>
<clipPath id="clip0">
<rect width="24" height="24" fill="white" transform="translate(0 0.00244141)"/>
</clipPath>
</defs>
</svg>
