<svg width="24" height="25" viewBox="0 0 24 25" fill="none" xmlns="http://www.w3.org/2000/svg">
<g clip-path="url(#clip0)">
<path d="M24 12.0728C24 5.44533 18.6274 0.0727539 12 0.0727539C5.37258 0.0727539 0 5.44533 0 12.0728C0 18.0623 4.38823 23.0267 10.125 23.927V15.5415H7.07812V12.0728H10.125V9.429C10.125 6.4215 11.9165 4.76025 14.6576 4.76025C15.9705 4.76025 17.3438 4.99463 17.3438 4.99463V7.94775H15.8306C14.3399 7.94775 13.875 8.87276 13.875 9.82175V12.0728H17.2031L16.6711 15.5415H13.875V23.927C19.6118 23.0267 24 18.0623 24 12.0728Z" fill="#EBF3FF"/>
</g>
<defs>
<clipPath id="clip0">
<rect width="24" height="24" fill="white" transform="translate(0 0.00244141)"/>
</clipPath>
</defs>
</svg>
