<svg width="80" height="80" viewBox="0 0 80 80" fill="none" xmlns="http://www.w3.org/2000/svg">
<path fill-rule="evenodd" clip-rule="evenodd" d="M34 19C34 18.4477 34.4477 18 35 18H37C37.5523 18 38 18.4477 38 19C38 19.5523 37.5523 20 37 20H35C34.4477 20 34 19.5523 34 19Z" fill="#001B43"/>
<path fill-rule="evenodd" clip-rule="evenodd" d="M34 19C34 18.4477 34.4477 18 35 18H37C37.5523 18 38 18.4477 38 19C38 19.5523 37.5523 20 37 20H35C34.4477 20 34 19.5523 34 19Z" fill="#0D0043"/>
<path fill-rule="evenodd" clip-rule="evenodd" d="M34 25C34 24.4477 34.4477 24 35 24H37C37.5523 24 38 24.4477 38 25C38 25.5523 37.5523 26 37 26H35C34.4477 26 34 25.5523 34 25Z" fill="#001B43"/>
<path fill-rule="evenodd" clip-rule="evenodd" d="M34 25C34 24.4477 34.4477 24 35 24H37C37.5523 24 38 24.4477 38 25C38 25.5523 37.5523 26 37 26H35C34.4477 26 34 25.5523 34 25Z" fill="#0D0043"/>
<path fill-rule="evenodd" clip-rule="evenodd" d="M34 31C34 30.4477 34.4477 30 35 30H37C37.5523 30 38 30.4477 38 31C38 31.5523 37.5523 32 37 32H35C34.4477 32 34 31.5523 34 31Z" fill="#001B43"/>
<path fill-rule="evenodd" clip-rule="evenodd" d="M34 31C34 30.4477 34.4477 30 35 30H37C37.5523 30 38 30.4477 38 31C38 31.5523 37.5523 32 37 32H35C34.4477 32 34 31.5523 34 31Z" fill="#0D0043"/>
<path fill-rule="evenodd" clip-rule="evenodd" d="M44 32C45.1046 32 46 32.8954 46 34V38C46 39.1046 45.1046 40 44 40C42.8954 40 42 39.1046 42 38V34C42 32.8954 42.8954 32 44 32Z" fill="#001B43"/>
<path fill-rule="evenodd" clip-rule="evenodd" d="M44 32C45.1046 32 46 32.8954 46 34V38C46 39.1046 45.1046 40 44 40C42.8954 40 42 39.1046 42 38V34C42 32.8954 42.8954 32 44 32Z" fill="#0D0043"/>
<path fill-rule="evenodd" clip-rule="evenodd" d="M42 19C42 18.4477 42.4477 18 43 18H45C45.5523 18 46 18.4477 46 19C46 19.5523 45.5523 20 45 20H43C42.4477 20 42 19.5523 42 19Z" fill="#001B43"/>
<path fill-rule="evenodd" clip-rule="evenodd" d="M42 19C42 18.4477 42.4477 18 43 18H45C45.5523 18 46 18.4477 46 19C46 19.5523 45.5523 20 45 20H43C42.4477 20 42 19.5523 42 19Z" fill="#0D0043"/>
<path fill-rule="evenodd" clip-rule="evenodd" d="M42 25C42 24.4477 42.4477 24 43 24H45C45.5523 24 46 24.4477 46 25C46 25.5523 45.5523 26 45 26H43C42.4477 26 42 25.5523 42 25Z" fill="#001B43"/>
<path fill-rule="evenodd" clip-rule="evenodd" d="M42 25C42 24.4477 42.4477 24 43 24H45C45.5523 24 46 24.4477 46 25C46 25.5523 45.5523 26 45 26H43C42.4477 26 42 25.5523 42 25Z" fill="#0D0043"/>
<path fill-rule="evenodd" clip-rule="evenodd" d="M30 12H50V40H30V12ZM32 14V38H48V14H32Z" fill="#001B43"/>
<path fill-rule="evenodd" clip-rule="evenodd" d="M30 12H50V40H30V12ZM32 14V38H48V14H32Z" fill="#0D0043"/>
<path fill-rule="evenodd" clip-rule="evenodd" d="M34 12C34 11.4477 34.4477 11 35 11H45C45.5523 11 46 11.4477 46 12C46 12.5523 45.5523 13 45 13H35C34.4477 13 34 12.5523 34 12Z" fill="#001B43"/>
<path fill-rule="evenodd" clip-rule="evenodd" d="M34 12C34 11.4477 34.4477 11 35 11H45C45.5523 11 46 11.4477 46 12C46 12.5523 45.5523 13 45 13H35C34.4477 13 34 12.5523 34 12Z" fill="#0D0043"/>
<path fill-rule="evenodd" clip-rule="evenodd" d="M26 40C26 39.4477 26.4477 39 27 39H53C53.5523 39 54 39.4477 54 40C54 40.5523 53.5523 41 53 41H27C26.4477 41 26 40.5523 26 40Z" fill="#001B43"/>
<path fill-rule="evenodd" clip-rule="evenodd" d="M26 40C26 39.4477 26.4477 39 27 39H53C53.5523 39 54 39.4477 54 40C54 40.5523 53.5523 41 53 41H27C26.4477 41 26 40.5523 26 40Z" fill="#0D0043"/>
<path fill-rule="evenodd" clip-rule="evenodd" d="M32.9284 66.3723C32.723 66.8845 32.1414 67.1335 31.6289 66.9285C31.1161 66.7234 30.8667 66.1414 31.0718 65.6286L32.0003 66C31.0718 65.6286 31.0722 65.6276 31.0722 65.6276L31.0726 65.6265L31.0737 65.6239L31.0763 65.6174L31.084 65.5989C31.0901 65.5842 31.0984 65.5649 31.1089 65.5411C31.1298 65.4936 31.1594 65.4285 31.1984 65.3483C31.2763 65.188 31.3917 64.9665 31.549 64.7043C31.8629 64.1812 32.3486 63.4874 33.0432 62.7929C34.4447 61.3914 36.6881 60 40.0003 60C43.3124 60 45.5559 61.3914 46.9574 62.7929C47.6519 63.4874 48.1377 64.1812 48.4515 64.7043C48.6088 64.9665 48.7243 65.188 48.8021 65.3483C48.8411 65.4285 48.8708 65.4936 48.8917 65.5411C48.9021 65.5649 48.9104 65.5842 48.9165 65.5989L48.9242 65.6174L48.9269 65.6239L48.9283 65.6276C48.9283 65.6276 48.9287 65.6286 48.0003 66L48.9287 65.6286C49.1339 66.1414 48.8844 66.7234 48.3717 66.9285C47.8601 67.1331 47.2796 66.8853 47.0732 66.375L47.0724 66.3729C47.0716 66.3709 47.0701 66.3675 47.0684 66.3636C47.0665 66.3591 47.064 66.3535 47.061 66.3466C47.0497 66.3209 47.0305 66.2786 47.0031 66.2221C46.9481 66.1089 46.8604 65.9398 46.7365 65.7332C46.4879 65.3188 46.0986 64.7626 45.5432 64.2071C44.4447 63.1086 42.6881 62 40.0003 62C37.3124 62 35.5559 63.1086 34.4574 64.2071C33.9019 64.7626 33.5127 65.3188 33.264 65.7332C33.1401 65.9398 33.0524 66.1089 32.9974 66.2221C32.97 66.2786 32.9508 66.3209 32.9395 66.3466C32.9338 66.3594 32.9302 66.368 32.9284 66.3723ZM32.9284 66.3723C32.9275 66.3744 32.9271 66.3754 32.9271 66.3754L32.9276 66.3743L32.9284 66.3723Z" fill="#001B43"/>
<path fill-rule="evenodd" clip-rule="evenodd" d="M32.9284 66.3723C32.723 66.8845 32.1414 67.1335 31.6289 66.9285C31.1161 66.7234 30.8667 66.1414 31.0718 65.6286L32.0003 66C31.0718 65.6286 31.0722 65.6276 31.0722 65.6276L31.0726 65.6265L31.0737 65.6239L31.0763 65.6174L31.084 65.5989C31.0901 65.5842 31.0984 65.5649 31.1089 65.5411C31.1298 65.4936 31.1594 65.4285 31.1984 65.3483C31.2763 65.188 31.3917 64.9665 31.549 64.7043C31.8629 64.1812 32.3486 63.4874 33.0432 62.7929C34.4447 61.3914 36.6881 60 40.0003 60C43.3124 60 45.5559 61.3914 46.9574 62.7929C47.6519 63.4874 48.1377 64.1812 48.4515 64.7043C48.6088 64.9665 48.7243 65.188 48.8021 65.3483C48.8411 65.4285 48.8708 65.4936 48.8917 65.5411C48.9021 65.5649 48.9104 65.5842 48.9165 65.5989L48.9242 65.6174L48.9269 65.6239L48.9283 65.6276C48.9283 65.6276 48.9287 65.6286 48.0003 66L48.9287 65.6286C49.1339 66.1414 48.8844 66.7234 48.3717 66.9285C47.8601 67.1331 47.2796 66.8853 47.0732 66.375L47.0724 66.3729C47.0716 66.3709 47.0701 66.3675 47.0684 66.3636C47.0665 66.3591 47.064 66.3535 47.061 66.3466C47.0497 66.3209 47.0305 66.2786 47.0031 66.2221C46.9481 66.1089 46.8604 65.9398 46.7365 65.7332C46.4879 65.3188 46.0986 64.7626 45.5432 64.2071C44.4447 63.1086 42.6881 62 40.0003 62C37.3124 62 35.5559 63.1086 34.4574 64.2071C33.9019 64.7626 33.5127 65.3188 33.264 65.7332C33.1401 65.9398 33.0524 66.1089 32.9974 66.2221C32.97 66.2786 32.9508 66.3209 32.9395 66.3466C32.9338 66.3594 32.9302 66.368 32.9284 66.3723ZM32.9284 66.3723C32.9275 66.3744 32.9271 66.3754 32.9271 66.3754L32.9276 66.3743L32.9284 66.3723Z" fill="#0D0043"/>
<path fill-rule="evenodd" clip-rule="evenodd" d="M36.4287 52.5C36.4287 50.567 37.9957 49 39.9287 49C41.8617 49 43.4287 50.567 43.4287 52.5V55.5C43.4287 57.433 41.8617 59 39.9287 59C37.9957 59 36.4287 57.433 36.4287 55.5V52.5ZM34.4287 55.5V52.5C34.4287 49.4624 36.8911 47 39.9287 47C42.9663 47 45.4287 49.4624 45.4287 52.5V55.5C45.4287 58.5376 42.9663 61 39.9287 61C36.8911 61 34.4287 58.5376 34.4287 55.5Z" fill="#001B43"/>
<path fill-rule="evenodd" clip-rule="evenodd" d="M36.4287 52.5C36.4287 50.567 37.9957 49 39.9287 49C41.8617 49 43.4287 50.567 43.4287 52.5V55.5C43.4287 57.433 41.8617 59 39.9287 59C37.9957 59 36.4287 57.433 36.4287 55.5V52.5ZM34.4287 55.5V52.5C34.4287 49.4624 36.8911 47 39.9287 47C42.9663 47 45.4287 49.4624 45.4287 52.5V55.5C45.4287 58.5376 42.9663 61 39.9287 61C36.8911 61 34.4287 58.5376 34.4287 55.5Z" fill="#0D0043"/>
<path fill-rule="evenodd" clip-rule="evenodd" d="M47.9284 62.3723C47.723 62.8845 47.1414 63.1335 46.6289 62.9285C46.1161 62.7234 45.8667 62.1414 46.0718 61.6286L47.0003 62C46.0718 61.6286 46.0722 61.6276 46.0722 61.6276L46.0726 61.6265L46.0737 61.6239L46.0763 61.6174L46.084 61.5989C46.0901 61.5842 46.0984 61.5649 46.1089 61.5411C46.1298 61.4936 46.1594 61.4285 46.1984 61.3483C46.2763 61.188 46.3917 60.9665 46.549 60.7043C46.8629 60.1812 47.3486 59.4874 48.0432 58.7929C49.4447 57.3914 51.6881 56 55.0003 56C58.3124 56 60.5559 57.3914 61.9574 58.7929C62.6519 59.4874 63.1377 60.1812 63.4515 60.7043C63.6088 60.9665 63.7243 61.188 63.8021 61.3483C63.8411 61.4285 63.8708 61.4936 63.8917 61.5411C63.9021 61.5649 63.9104 61.5842 63.9165 61.5989L63.9242 61.6174L63.9269 61.6239L63.9283 61.6276C63.9283 61.6276 63.9287 61.6286 63.0003 62L63.9287 61.6286C64.1339 62.1414 63.8844 62.7234 63.3717 62.9285C62.8601 63.1331 62.2796 62.8853 62.0732 62.375L62.0724 62.3729C62.0716 62.3709 62.0701 62.3675 62.0684 62.3636C62.0665 62.3591 62.064 62.3535 62.061 62.3466C62.0497 62.3209 62.0305 62.2786 62.0031 62.2221C61.9481 62.1089 61.8604 61.9398 61.7365 61.7332C61.4879 61.3188 61.0986 60.7626 60.5432 60.2071C59.4447 59.1086 57.6881 58 55.0003 58C52.3124 58 50.5559 59.1086 49.4574 60.2071C48.9019 60.7626 48.5127 61.3188 48.264 61.7332C48.1401 61.9398 48.0524 62.1089 47.9974 62.2221C47.97 62.2786 47.9508 62.3209 47.9395 62.3466C47.9338 62.3594 47.9302 62.368 47.9284 62.3723ZM47.9284 62.3723C47.9275 62.3744 47.9271 62.3754 47.9271 62.3754L47.9276 62.3743L47.9284 62.3723Z" fill="#001B43"/>
<path fill-rule="evenodd" clip-rule="evenodd" d="M47.9284 62.3723C47.723 62.8845 47.1414 63.1335 46.6289 62.9285C46.1161 62.7234 45.8667 62.1414 46.0718 61.6286L47.0003 62C46.0718 61.6286 46.0722 61.6276 46.0722 61.6276L46.0726 61.6265L46.0737 61.6239L46.0763 61.6174L46.084 61.5989C46.0901 61.5842 46.0984 61.5649 46.1089 61.5411C46.1298 61.4936 46.1594 61.4285 46.1984 61.3483C46.2763 61.188 46.3917 60.9665 46.549 60.7043C46.8629 60.1812 47.3486 59.4874 48.0432 58.7929C49.4447 57.3914 51.6881 56 55.0003 56C58.3124 56 60.5559 57.3914 61.9574 58.7929C62.6519 59.4874 63.1377 60.1812 63.4515 60.7043C63.6088 60.9665 63.7243 61.188 63.8021 61.3483C63.8411 61.4285 63.8708 61.4936 63.8917 61.5411C63.9021 61.5649 63.9104 61.5842 63.9165 61.5989L63.9242 61.6174L63.9269 61.6239L63.9283 61.6276C63.9283 61.6276 63.9287 61.6286 63.0003 62L63.9287 61.6286C64.1339 62.1414 63.8844 62.7234 63.3717 62.9285C62.8601 63.1331 62.2796 62.8853 62.0732 62.375L62.0724 62.3729C62.0716 62.3709 62.0701 62.3675 62.0684 62.3636C62.0665 62.3591 62.064 62.3535 62.061 62.3466C62.0497 62.3209 62.0305 62.2786 62.0031 62.2221C61.9481 62.1089 61.8604 61.9398 61.7365 61.7332C61.4879 61.3188 61.0986 60.7626 60.5432 60.2071C59.4447 59.1086 57.6881 58 55.0003 58C52.3124 58 50.5559 59.1086 49.4574 60.2071C48.9019 60.7626 48.5127 61.3188 48.264 61.7332C48.1401 61.9398 48.0524 62.1089 47.9974 62.2221C47.97 62.2786 47.9508 62.3209 47.9395 62.3466C47.9338 62.3594 47.9302 62.368 47.9284 62.3723ZM47.9284 62.3723C47.9275 62.3744 47.9271 62.3754 47.9271 62.3754L47.9276 62.3743L47.9284 62.3723Z" fill="#0D0043"/>
<path fill-rule="evenodd" clip-rule="evenodd" d="M51.4287 48.5C51.4287 46.567 52.9957 45 54.9287 45C56.8617 45 58.4287 46.567 58.4287 48.5V51.5C58.4287 53.433 56.8617 55 54.9287 55C52.9957 55 51.4287 53.433 51.4287 51.5V48.5ZM49.4287 51.5V48.5C49.4287 45.4624 51.8911 43 54.9287 43C57.9663 43 60.4287 45.4624 60.4287 48.5V51.5C60.4287 54.5376 57.9663 57 54.9287 57C51.8911 57 49.4287 54.5376 49.4287 51.5Z" fill="#001B43"/>
<path fill-rule="evenodd" clip-rule="evenodd" d="M51.4287 48.5C51.4287 46.567 52.9957 45 54.9287 45C56.8617 45 58.4287 46.567 58.4287 48.5V51.5C58.4287 53.433 56.8617 55 54.9287 55C52.9957 55 51.4287 53.433 51.4287 51.5V48.5ZM49.4287 51.5V48.5C49.4287 45.4624 51.8911 43 54.9287 43C57.9663 43 60.4287 45.4624 60.4287 48.5V51.5C60.4287 54.5376 57.9663 57 54.9287 57C51.8911 57 49.4287 54.5376 49.4287 51.5Z" fill="#0D0043"/>
<path fill-rule="evenodd" clip-rule="evenodd" d="M21.4287 48.5C21.4287 46.567 22.9957 45 24.9287 45C26.8617 45 28.4287 46.567 28.4287 48.5V51.5C28.4287 53.433 26.8617 55 24.9287 55C22.9957 55 21.4287 53.433 21.4287 51.5V48.5ZM19.4287 51.5V48.5C19.4287 45.4624 21.8911 43 24.9287 43C27.9663 43 30.4287 45.4624 30.4287 48.5V51.5C30.4287 54.5376 27.9663 57 24.9287 57C21.8911 57 19.4287 54.5376 19.4287 51.5Z" fill="#001B43"/>
<path fill-rule="evenodd" clip-rule="evenodd" d="M21.4287 48.5C21.4287 46.567 22.9957 45 24.9287 45C26.8617 45 28.4287 46.567 28.4287 48.5V51.5C28.4287 53.433 26.8617 55 24.9287 55C22.9957 55 21.4287 53.433 21.4287 51.5V48.5ZM19.4287 51.5V48.5C19.4287 45.4624 21.8911 43 24.9287 43C27.9663 43 30.4287 45.4624 30.4287 48.5V51.5C30.4287 54.5376 27.9663 57 24.9287 57C21.8911 57 19.4287 54.5376 19.4287 51.5Z" fill="#0D0043"/>
<path fill-rule="evenodd" clip-rule="evenodd" d="M17.9284 62.3723C17.723 62.8845 17.1414 63.1335 16.6289 62.9285C16.1161 62.7234 15.8667 62.1414 16.0718 61.6286L17.0003 62C16.0718 61.6286 16.0722 61.6276 16.0722 61.6276L16.0726 61.6265L16.0737 61.6239L16.0763 61.6174L16.084 61.5989C16.0901 61.5842 16.0984 61.5649 16.1089 61.5411C16.1298 61.4936 16.1594 61.4285 16.1984 61.3483C16.2763 61.188 16.3917 60.9665 16.549 60.7043C16.8629 60.1812 17.3486 59.4874 18.0432 58.7929C19.4447 57.3914 21.6881 56 25.0003 56C28.3124 56 30.5559 57.3914 31.9574 58.7929C32.6519 59.4874 33.1377 60.1812 33.4515 60.7043C33.6088 60.9665 33.7243 61.188 33.8021 61.3483C33.8411 61.4285 33.8708 61.4936 33.8917 61.5411C33.9021 61.5649 33.9104 61.5842 33.9165 61.5989L33.9242 61.6174L33.9269 61.6239L33.9283 61.6276C33.9283 61.6276 33.9287 61.6286 33.0003 62L33.9287 61.6286C34.1339 62.1414 33.8844 62.7234 33.3717 62.9285C32.8601 63.1331 32.2796 62.8853 32.0732 62.375L32.0724 62.3729C32.0716 62.3709 32.0701 62.3675 32.0684 62.3636C32.0665 62.3591 32.064 62.3535 32.061 62.3466C32.0497 62.3209 32.0305 62.2786 32.0031 62.2221C31.9481 62.1089 31.8604 61.9398 31.7365 61.7332C31.4879 61.3188 31.0986 60.7626 30.5432 60.2071C29.4447 59.1086 27.6881 58 25.0003 58C22.3124 58 20.5559 59.1086 19.4574 60.2071C18.9019 60.7626 18.5127 61.3188 18.264 61.7332C18.1401 61.9398 18.0524 62.1089 17.9974 62.2221C17.97 62.2786 17.9508 62.3209 17.9395 62.3466C17.9338 62.3594 17.9302 62.368 17.9284 62.3723ZM17.9284 62.3723C17.9275 62.3744 17.9271 62.3754 17.9271 62.3754L17.9276 62.3743L17.9284 62.3723Z" fill="#001B43"/>
<path fill-rule="evenodd" clip-rule="evenodd" d="M17.9284 62.3723C17.723 62.8845 17.1414 63.1335 16.6289 62.9285C16.1161 62.7234 15.8667 62.1414 16.0718 61.6286L17.0003 62C16.0718 61.6286 16.0722 61.6276 16.0722 61.6276L16.0726 61.6265L16.0737 61.6239L16.0763 61.6174L16.084 61.5989C16.0901 61.5842 16.0984 61.5649 16.1089 61.5411C16.1298 61.4936 16.1594 61.4285 16.1984 61.3483C16.2763 61.188 16.3917 60.9665 16.549 60.7043C16.8629 60.1812 17.3486 59.4874 18.0432 58.7929C19.4447 57.3914 21.6881 56 25.0003 56C28.3124 56 30.5559 57.3914 31.9574 58.7929C32.6519 59.4874 33.1377 60.1812 33.4515 60.7043C33.6088 60.9665 33.7243 61.188 33.8021 61.3483C33.8411 61.4285 33.8708 61.4936 33.8917 61.5411C33.9021 61.5649 33.9104 61.5842 33.9165 61.5989L33.9242 61.6174L33.9269 61.6239L33.9283 61.6276C33.9283 61.6276 33.9287 61.6286 33.0003 62L33.9287 61.6286C34.1339 62.1414 33.8844 62.7234 33.3717 62.9285C32.8601 63.1331 32.2796 62.8853 32.0732 62.375L32.0724 62.3729C32.0716 62.3709 32.0701 62.3675 32.0684 62.3636C32.0665 62.3591 32.064 62.3535 32.061 62.3466C32.0497 62.3209 32.0305 62.2786 32.0031 62.2221C31.9481 62.1089 31.8604 61.9398 31.7365 61.7332C31.4879 61.3188 31.0986 60.7626 30.5432 60.2071C29.4447 59.1086 27.6881 58 25.0003 58C22.3124 58 20.5559 59.1086 19.4574 60.2071C18.9019 60.7626 18.5127 61.3188 18.264 61.7332C18.1401 61.9398 18.0524 62.1089 17.9974 62.2221C17.97 62.2786 17.9508 62.3209 17.9395 62.3466C17.9338 62.3594 17.9302 62.368 17.9284 62.3723ZM17.9284 62.3723C17.9275 62.3744 17.9271 62.3754 17.9271 62.3754L17.9276 62.3743L17.9284 62.3723Z" fill="#0D0043"/>
</svg>
