<svg width="24" height="24" viewBox="0 0 24 24" fill="none" xmlns="http://www.w3.org/2000/svg">
<path fill-rule="evenodd" clip-rule="evenodd" d="M22 5.99756H2L2 17.9976H22V5.99756ZM2 3.99756C0.895431 3.99756 0 4.89299 0 5.99756V17.9976C0 19.1021 0.89543 19.9976 2 19.9976H22C23.1046 19.9976 24 19.1021 24 17.9976V5.99756C24 4.89299 23.1046 3.99756 22 3.99756H2Z" fill="#FFDB4D"/>
<path fill-rule="evenodd" clip-rule="evenodd" d="M22 5.99756H2L2 17.9976H22V5.99756ZM2 3.99756C0.895431 3.99756 0 4.89299 0 5.99756V17.9976C0 19.1021 0.89543 19.9976 2 19.9976H22C23.1046 19.9976 24 19.1021 24 17.9976V5.99756C24 4.89299 23.1046 3.99756 22 3.99756H2Z" fill="#FFE270"/>
<path d="M14 1.99756H20V5.99756H14V1.99756Z" fill="#FFDB4D"/>
<path d="M14 1.99756H20V5.99756H14V1.99756Z" fill="#FFE270"/>
<path fill-rule="evenodd" clip-rule="evenodd" d="M12 13.9976C13.1046 13.9976 14 13.1021 14 11.9976C14 10.893 13.1046 9.99756 12 9.99756C10.8954 9.99756 10 10.893 10 11.9976C10 13.1021 10.8954 13.9976 12 13.9976ZM12 15.9976C14.2091 15.9976 16 14.2067 16 11.9976C16 9.78842 14.2091 7.99756 12 7.99756C9.79086 7.99756 8 9.78842 8 11.9976C8 14.2067 9.79086 15.9976 12 15.9976Z" fill="#FFDB4D"/>
<path fill-rule="evenodd" clip-rule="evenodd" d="M12 13.9976C13.1046 13.9976 14 13.1021 14 11.9976C14 10.893 13.1046 9.99756 12 9.99756C10.8954 9.99756 10 10.893 10 11.9976C10 13.1021 10.8954 13.9976 12 13.9976ZM12 15.9976C14.2091 15.9976 16 14.2067 16 11.9976C16 9.78842 14.2091 7.99756 12 7.99756C9.79086 7.99756 8 9.78842 8 11.9976C8 14.2067 9.79086 15.9976 12 15.9976Z" fill="#FFE270"/>
</svg>
