<svg width="24" height="24" viewBox="0 0 24 24" fill="none" xmlns="http://www.w3.org/2000/svg">
<path fill-rule="evenodd" clip-rule="evenodd" d="M7.29289 4.29289L0.292894 11.2929C0.105357 11.4804 -4.21468e-08 11.7348 0 12C4.21468e-08 12.2652 0.105357 12.5196 0.292894 12.7071L7.29289 19.7071C7.68342 20.0976 8.31658 20.0976 8.70711 19.7071C9.09763 19.3166 9.09763 18.6834 8.70711 18.2929L3.41421 13H23C23.5523 13 24 12.5523 24 12C24 11.4477 23.5523 11 23 11L3.41422 11L8.70711 5.70711C9.09763 5.31658 9.09763 4.68342 8.70711 4.29289C8.31658 3.90237 7.68342 3.90237 7.29289 4.29289Z" fill="#EBF3FF"/>
</svg>
