<svg width="24" height="24" viewBox="0 0 24 24" fill="none" xmlns="http://www.w3.org/2000/svg">
<path fill-rule="evenodd" clip-rule="evenodd" d="M8 12C8 11.4477 8.44772 11 9 11H15C15.5523 11 16 11.4477 16 12C16 12.5523 15.5523 13 15 13H9C8.44772 13 8 12.5523 8 12Z" fill="#EBF3FF"/>
<path d="M15 7C15 6.44772 15.4477 6 16 6H18C21.3137 6 24 8.68629 24 12C24 15.3137 21.3137 18 18 18H16C15.4477 18 15 17.5523 15 17C15 16.4477 15.4477 16 16 16H18C20.2091 16 22 14.2091 22 12C22 9.79086 20.2091 8 18 8L16 8C15.4477 8 15 7.55229 15 7Z" fill="#EBF3FF"/>
<path d="M6 6H8C8.55228 6 9 6.44772 9 7C9 7.55229 8.55228 8 8 8L6 8C3.79086 8 2 9.79086 2 12C2 14.2091 3.79086 16 6 16H8C8.55228 16 9 16.4477 9 17C9 17.5523 8.55228 18 8 18H6C2.68629 18 0 15.3137 0 12C0 8.68629 2.68629 6 6 6Z" fill="#EBF3FF"/>
</svg>
