<svg width="24" height="24" viewBox="0 0 24 24" fill="none" xmlns="http://www.w3.org/2000/svg">
<path d="M1 3.99756C0.447715 3.99756 0 4.44527 0 4.99756C0 5.54984 0.447715 5.99756 1 5.99756H14C14.5523 5.99756 15 5.54984 15 4.99756C15 4.44527 14.5523 3.99756 14 3.99756H1Z" fill="#EBF3FF"/>
<path d="M20 3.99756C19.4477 3.99756 19 4.44527 19 4.99756C19 5.54984 19.4477 5.99756 20 5.99756L23 5.99756C23.5523 5.99756 24 5.54984 24 4.99756C24 4.44527 23.5523 3.99756 23 3.99756H20Z" fill="#EBF3FF"/>
<path d="M1 17.9976C0.447715 17.9976 0 18.4453 0 18.9976C0 19.5498 0.447715 19.9976 1 19.9976H10C10.5523 19.9976 11 19.5498 11 18.9976C11 18.4453 10.5523 17.9976 10 17.9976H1Z" fill="#EBF3FF"/>
<path d="M16 17.9976C15.4477 17.9976 15 18.4453 15 18.9976C15 19.5498 15.4477 19.9976 16 19.9976L23 19.9976C23.5523 19.9976 24 19.5498 24 18.9976C24 18.4453 23.5523 17.9976 23 17.9976H16Z" fill="#EBF3FF"/>
<path d="M1 10.9976C0.447715 10.9976 0 11.4453 0 11.9976C0 12.5498 0.447715 12.9976 1 12.9976H4C4.55228 12.9976 5 12.5498 5 11.9976C5 11.4453 4.55228 10.9976 4 10.9976H1Z" fill="#EBF3FF"/>
<path d="M10 10.9976C9.44771 10.9976 9 11.4453 9 11.9976C9 12.5498 9.44771 12.9976 10 12.9976L23 12.9976C23.5523 12.9976 24 12.5498 24 11.9976C24 11.4453 23.5523 10.9976 23 10.9976H10Z" fill="#EBF3FF"/>
<path fill-rule="evenodd" clip-rule="evenodd" d="M17 5.99756C17.5523 5.99756 18 5.54984 18 4.99756C18 4.44527 17.5523 3.99756 17 3.99756C16.4477 3.99756 16 4.44527 16 4.99756C16 5.54984 16.4477 5.99756 17 5.99756ZM17 7.99756C18.6569 7.99756 20 6.65441 20 4.99756C20 3.3407 18.6569 1.99756 17 1.99756C15.3431 1.99756 14 3.3407 14 4.99756C14 6.65441 15.3431 7.99756 17 7.99756Z" fill="#EBF3FF"/>
<path fill-rule="evenodd" clip-rule="evenodd" d="M7 12.9976C7.55228 12.9976 8 12.5498 8 11.9976C8 11.4453 7.55228 10.9976 7 10.9976C6.44772 10.9976 6 11.4453 6 11.9976C6 12.5498 6.44772 12.9976 7 12.9976ZM7 14.9976C8.65685 14.9976 10 13.6544 10 11.9976C10 10.3407 8.65685 8.99756 7 8.99756C5.34315 8.99756 4 10.3407 4 11.9976C4 13.6544 5.34315 14.9976 7 14.9976Z" fill="#EBF3FF"/>
<path fill-rule="evenodd" clip-rule="evenodd" d="M13 19.9976C13.5523 19.9976 14 19.5498 14 18.9976C14 18.4453 13.5523 17.9976 13 17.9976C12.4477 17.9976 12 18.4453 12 18.9976C12 19.5498 12.4477 19.9976 13 19.9976ZM13 21.9976C14.6569 21.9976 16 20.6544 16 18.9976C16 17.3407 14.6569 15.9976 13 15.9976C11.3431 15.9976 10 17.3407 10 18.9976C10 20.6544 11.3431 21.9976 13 21.9976Z" fill="#EBF3FF"/>
</svg>
