<svg width="24" height="24" viewBox="0 0 24 24" fill="none" xmlns="http://www.w3.org/2000/svg">
<path fill-rule="evenodd" clip-rule="evenodd" d="M16.7071 4.29289L23.7071 11.2929C24.0976 11.6834 24.0976 12.3166 23.7071 12.7071L16.7071 19.7071C16.3166 20.0976 15.6834 20.0976 15.2929 19.7071C14.9024 19.3166 14.9024 18.6834 15.2929 18.2929L20.5858 13L1 13C0.447716 13 2.31808e-07 12.5523 0 12C-2.52881e-07 11.4477 0.447715 11 1 11L20.5858 11L15.2929 5.70711C14.9024 5.31658 14.9024 4.68342 15.2929 4.29289C15.6834 3.90237 16.3166 3.90237 16.7071 4.29289Z" fill="#FFDB4D"/>
<path fill-rule="evenodd" clip-rule="evenodd" d="M16.7071 4.29289L23.7071 11.2929C24.0976 11.6834 24.0976 12.3166 23.7071 12.7071L16.7071 19.7071C16.3166 20.0976 15.6834 20.0976 15.2929 19.7071C14.9024 19.3166 14.9024 18.6834 15.2929 18.2929L20.5858 13L1 13C0.447716 13 2.31808e-07 12.5523 0 12C-2.52881e-07 11.4477 0.447715 11 1 11L20.5858 11L15.2929 5.70711C14.9024 5.31658 14.9024 4.68342 15.2929 4.29289C15.6834 3.90237 16.3166 3.90237 16.7071 4.29289Z" fill="#FFE270"/>
</svg>
