<svg width="24" height="24" viewBox="0 0 24 24" fill="none" xmlns="http://www.w3.org/2000/svg">
<path d="M8 11.9927C8 12.545 7.55228 12.9927 7 12.9927C6.44772 12.9927 6 12.545 6 11.9927C6 11.4404 6.44772 10.9927 7 10.9927C7.55228 10.9927 8 11.4404 8 11.9927Z" fill="#FFDB4D"/>
<path d="M8 11.9927C8 12.545 7.55228 12.9927 7 12.9927C6.44772 12.9927 6 12.545 6 11.9927C6 11.4404 6.44772 10.9927 7 10.9927C7.55228 10.9927 8 11.4404 8 11.9927Z" fill="#FFE270"/>
<path d="M13 11.9927C13 12.545 12.5523 12.9927 12 12.9927C11.4477 12.9927 11 12.545 11 11.9927C11 11.4404 11.4477 10.9927 12 10.9927C12.5523 10.9927 13 11.4404 13 11.9927Z" fill="#FFDB4D"/>
<path d="M13 11.9927C13 12.545 12.5523 12.9927 12 12.9927C11.4477 12.9927 11 12.545 11 11.9927C11 11.4404 11.4477 10.9927 12 10.9927C12.5523 10.9927 13 11.4404 13 11.9927Z" fill="#FFE270"/>
<path d="M17 12.9927C17.5523 12.9927 18 12.545 18 11.9927C18 11.4404 17.5523 10.9927 17 10.9927C16.4477 10.9927 16 11.4404 16 11.9927C16 12.545 16.4477 12.9927 17 12.9927Z" fill="#FFDB4D"/>
<path d="M17 12.9927C17.5523 12.9927 18 12.545 18 11.9927C18 11.4404 17.5523 10.9927 17 10.9927C16.4477 10.9927 16 11.4404 16 11.9927C16 12.545 16.4477 12.9927 17 12.9927Z" fill="#FFE270"/>
<path fill-rule="evenodd" clip-rule="evenodd" d="M12 23.9927L18 19.9927H22C23.1046 19.9927 24 19.0972 24 17.9927V5.99268C24 4.88811 23.1046 3.99268 22 3.99268H2C0.895431 3.99268 0 4.88811 0 5.99268V17.9927C0 19.0972 0.895431 19.9927 2 19.9927H12V23.9927ZM14 17.9927H2V5.99268H22V17.9927H17.3944L14 20.2556V17.9927Z" fill="#FFDB4D"/>
<path fill-rule="evenodd" clip-rule="evenodd" d="M12 23.9927L18 19.9927H22C23.1046 19.9927 24 19.0972 24 17.9927V5.99268C24 4.88811 23.1046 3.99268 22 3.99268H2C0.895431 3.99268 0 4.88811 0 5.99268V17.9927C0 19.0972 0.895431 19.9927 2 19.9927H12V23.9927ZM14 17.9927H2V5.99268H22V17.9927H17.3944L14 20.2556V17.9927Z" fill="#FFE270"/>
</svg>
