<svg width="24" height="24" viewBox="0 0 24 24" fill="none" xmlns="http://www.w3.org/2000/svg">
<path fill-rule="evenodd" clip-rule="evenodd" d="M11.1167 2.03847C11.2438 2.02735 11.3716 2.01861 11.5 2.01228V6.5H7.5043C8.03127 5.23656 8.70446 4.2684 9.36997 3.53634C9.99377 2.85016 10.6163 2.36554 11.1167 2.03847ZM6.4283 6.5C7.01735 4.94409 7.81912 3.75566 8.63003 2.86366C8.76303 2.71737 8.89608 2.57925 9.02823 2.44898C6.79988 3.14157 4.90553 4.59253 3.64702 6.5H6.4283ZM3.06729 7.5H6.09571C5.76284 8.65238 5.54559 9.97846 5.50639 11.5H2.01228C2.08287 10.0666 2.45528 8.71249 3.06729 7.5ZM7.14011 7.5H11.5V11.5H6.50674C6.54888 9.94997 6.78594 8.62661 7.14011 7.5ZM12.5 7.5V11.5H17.4933C17.4511 9.94997 17.2141 8.62661 16.8599 7.5H12.5ZM17.9043 7.5C18.2372 8.65238 18.4544 9.97845 18.4936 11.5H21.9877C21.9171 10.0666 21.5447 8.71249 20.9327 7.5H17.9043ZM20.353 6.5H17.5717C16.9826 4.94409 16.1809 3.75566 15.37 2.86366C15.237 2.71737 15.1039 2.57925 14.9718 2.44898C17.2001 3.14157 19.0945 4.59253 20.353 6.5ZM16.4957 6.5H12.5V2.01228C12.6284 2.01861 12.7562 2.02735 12.8833 2.03847C13.3837 2.36554 14.0062 2.85016 14.63 3.53634C15.2955 4.2684 15.9687 5.23656 16.4957 6.5ZM2.01228 12.5H5.50639C5.54559 14.0215 5.76284 15.3476 6.09571 16.5H3.06729C2.45528 15.2875 2.08287 13.9334 2.01228 12.5ZM3.64702 17.5H6.4283C7.01735 19.0559 7.81912 20.2443 8.63003 21.1363C8.76303 21.2826 8.89608 21.4207 9.02823 21.551C6.79988 20.8584 4.90553 19.4075 3.64702 17.5ZM11.5 17.5H7.50431C8.03128 18.7634 8.70446 19.7316 9.36997 20.4637C9.99376 21.1498 10.6163 21.6345 11.1167 21.9615C11.2438 21.9726 11.3716 21.9814 11.5 21.9877V17.5ZM7.14011 16.5H11.5V12.5H6.50674C6.54889 14.05 6.78594 15.3734 7.14011 16.5ZM12.5 21.9877V17.5H16.4957C15.9687 18.7634 15.2955 19.7316 14.63 20.4637C14.0062 21.1498 13.3837 21.6345 12.8833 21.9615C12.7562 21.9726 12.6284 21.9814 12.5 21.9877ZM12.5 16.5H16.8599C17.2141 15.3734 17.4511 14.05 17.4933 12.5H12.5V16.5ZM15.37 21.1363C16.1809 20.2443 16.9826 19.0559 17.5717 17.5H20.353C19.0945 19.4075 17.2001 20.8584 14.9718 21.551C15.1039 21.4207 15.237 21.2826 15.37 21.1363ZM17.9043 16.5H20.9327C21.5447 15.2875 21.9171 13.9334 21.9877 12.5H18.4936C18.4544 14.0215 18.2372 15.3476 17.9043 16.5ZM12 24C18.6274 24 24 18.6274 24 12C24 5.37258 18.6274 0 12 0C5.37258 0 0 5.37258 0 12C0 18.6274 5.37258 24 12 24Z" fill="#FFDB4D"/>
<path fill-rule="evenodd" clip-rule="evenodd" d="M11.1167 2.03847C11.2438 2.02735 11.3716 2.01861 11.5 2.01228V6.5H7.5043C8.03127 5.23656 8.70446 4.2684 9.36997 3.53634C9.99377 2.85016 10.6163 2.36554 11.1167 2.03847ZM6.4283 6.5C7.01735 4.94409 7.81912 3.75566 8.63003 2.86366C8.76303 2.71737 8.89608 2.57925 9.02823 2.44898C6.79988 3.14157 4.90553 4.59253 3.64702 6.5H6.4283ZM3.06729 7.5H6.09571C5.76284 8.65238 5.54559 9.97846 5.50639 11.5H2.01228C2.08287 10.0666 2.45528 8.71249 3.06729 7.5ZM7.14011 7.5H11.5V11.5H6.50674C6.54888 9.94997 6.78594 8.62661 7.14011 7.5ZM12.5 7.5V11.5H17.4933C17.4511 9.94997 17.2141 8.62661 16.8599 7.5H12.5ZM17.9043 7.5C18.2372 8.65238 18.4544 9.97845 18.4936 11.5H21.9877C21.9171 10.0666 21.5447 8.71249 20.9327 7.5H17.9043ZM20.353 6.5H17.5717C16.9826 4.94409 16.1809 3.75566 15.37 2.86366C15.237 2.71737 15.1039 2.57925 14.9718 2.44898C17.2001 3.14157 19.0945 4.59253 20.353 6.5ZM16.4957 6.5H12.5V2.01228C12.6284 2.01861 12.7562 2.02735 12.8833 2.03847C13.3837 2.36554 14.0062 2.85016 14.63 3.53634C15.2955 4.2684 15.9687 5.23656 16.4957 6.5ZM2.01228 12.5H5.50639C5.54559 14.0215 5.76284 15.3476 6.09571 16.5H3.06729C2.45528 15.2875 2.08287 13.9334 2.01228 12.5ZM3.64702 17.5H6.4283C7.01735 19.0559 7.81912 20.2443 8.63003 21.1363C8.76303 21.2826 8.89608 21.4207 9.02823 21.551C6.79988 20.8584 4.90553 19.4075 3.64702 17.5ZM11.5 17.5H7.50431C8.03128 18.7634 8.70446 19.7316 9.36997 20.4637C9.99376 21.1498 10.6163 21.6345 11.1167 21.9615C11.2438 21.9726 11.3716 21.9814 11.5 21.9877V17.5ZM7.14011 16.5H11.5V12.5H6.50674C6.54889 14.05 6.78594 15.3734 7.14011 16.5ZM12.5 21.9877V17.5H16.4957C15.9687 18.7634 15.2955 19.7316 14.63 20.4637C14.0062 21.1498 13.3837 21.6345 12.8833 21.9615C12.7562 21.9726 12.6284 21.9814 12.5 21.9877ZM12.5 16.5H16.8599C17.2141 15.3734 17.4511 14.05 17.4933 12.5H12.5V16.5ZM15.37 21.1363C16.1809 20.2443 16.9826 19.0559 17.5717 17.5H20.353C19.0945 19.4075 17.2001 20.8584 14.9718 21.551C15.1039 21.4207 15.237 21.2826 15.37 21.1363ZM17.9043 16.5H20.9327C21.5447 15.2875 21.9171 13.9334 21.9877 12.5H18.4936C18.4544 14.0215 18.2372 15.3476 17.9043 16.5ZM12 24C18.6274 24 24 18.6274 24 12C24 5.37258 18.6274 0 12 0C5.37258 0 0 5.37258 0 12C0 18.6274 5.37258 24 12 24Z" fill="#FFE270"/>
</svg>
