<svg width="24" height="24" viewBox="0 0 24 24" fill="none" xmlns="http://www.w3.org/2000/svg">
<path fill-rule="evenodd" clip-rule="evenodd" d="M16.5 5C16.5 7.76142 14.2614 10 11.5 10C8.73858 10 6.5 7.76142 6.5 5C6.5 2.23858 8.73858 0 11.5 0C14.2614 0 16.5 2.23858 16.5 5ZM14.5 5C14.5 6.65685 13.1569 8 11.5 8C9.84315 8 8.5 6.65685 8.5 5C8.5 3.34315 9.84315 2 11.5 2C13.1569 2 14.5 3.34315 14.5 5Z" fill="#FFDB4D"/>
<path fill-rule="evenodd" clip-rule="evenodd" d="M16.5 5C16.5 7.76142 14.2614 10 11.5 10C8.73858 10 6.5 7.76142 6.5 5C6.5 2.23858 8.73858 0 11.5 0C14.2614 0 16.5 2.23858 16.5 5ZM14.5 5C14.5 6.65685 13.1569 8 11.5 8C9.84315 8 8.5 6.65685 8.5 5C8.5 3.34315 9.84315 2 11.5 2C13.1569 2 14.5 3.34315 14.5 5Z" fill="#FFE270"/>
<path d="M5.5 20.9231C5.5 18.5942 7.34276 16 11.5 16C13.6261 16 15.1158 16.6444 16.0653 17.5365C17.017 18.4307 17.5 19.6411 17.5 20.9231V23C17.5 23.5523 17.9477 24 18.5 24C19.0523 24 19.5 23.5523 19.5 23V20.9231C19.5 19.1281 18.8164 17.377 17.4347 16.0789C16.0509 14.7787 14.0406 14 11.5 14C6.32386 14 3.5 17.4058 3.5 20.9231V23C3.5 23.5523 3.94772 24 4.5 24C5.05228 24 5.5 23.5523 5.5 23V20.9231Z" fill="#FFDB4D"/>
<path d="M5.5 20.9231C5.5 18.5942 7.34276 16 11.5 16C13.6261 16 15.1158 16.6444 16.0653 17.5365C17.017 18.4307 17.5 19.6411 17.5 20.9231V23C17.5 23.5523 17.9477 24 18.5 24C19.0523 24 19.5 23.5523 19.5 23V20.9231C19.5 19.1281 18.8164 17.377 17.4347 16.0789C16.0509 14.7787 14.0406 14 11.5 14C6.32386 14 3.5 17.4058 3.5 20.9231V23C3.5 23.5523 3.94772 24 4.5 24C5.05228 24 5.5 23.5523 5.5 23V20.9231Z" fill="#FFE270"/>
</svg>
