<svg width="24" height="32" viewBox="0 0 24 32" fill="none" xmlns="http://www.w3.org/2000/svg">
<path fill-rule="evenodd" clip-rule="evenodd" d="M12 -0.00326538C9.01969 -0.00326538 5.8264 1.14435 3.62826 3.46194C1.37919 5.83323 0.287353 9.31037 1.37312 13.6534C2.74948 19.1589 5.05725 23.6275 7.07209 26.7239C8.07993 28.2728 9.02084 29.4881 9.74651 30.3272C10.1078 30.745 10.4255 31.0809 10.6797 31.3225C10.804 31.4407 10.9322 31.5545 11.0548 31.6477C11.114 31.6926 11.1982 31.753 11.2977 31.8085L11.3028 31.8113C11.3547 31.8408 11.6296 31.9967 12 31.9967C12.3703 31.9967 12.6452 31.8408 12.6971 31.8113L12.7022 31.8085C12.8018 31.753 12.8859 31.6926 12.9451 31.6477C13.0677 31.5545 13.1959 31.4407 13.3202 31.3225C13.5744 31.0809 13.8921 30.745 14.2534 30.3272C14.9791 29.4881 15.92 28.2728 16.9278 26.7239C18.9427 23.6275 21.2504 19.1589 22.6268 13.6535C23.7126 9.31037 22.6207 5.83323 20.3717 3.46194C18.1735 1.14435 14.9802 -0.00326538 12 -0.00326538ZM12 14.6634C13.4727 14.6634 14.6666 13.4695 14.6666 11.9967C14.6666 10.524 13.4727 9.33007 12 9.33007C10.5272 9.33007 9.33329 10.524 9.33329 11.9967C9.33329 13.4695 10.5272 14.6634 12 14.6634Z" fill="#10428E"/>
</svg>
